<svg width="305" height="325" viewBox="0 0 305 325" fill="none" xmlns="http://www.w3.org/2000/svg">
<g filter="url(#filter0_d_145_114)">
<rect x="10" y="9" width="279" height="299" rx="5" fill="white"/>
</g>
<circle cx="149.5" cy="116.5" r="87" stroke="black"/>
<mask id="mask0_145_114" style="mask-type:alpha" maskUnits="userSpaceOnUse" x="62" y="29" width="175" height="175">
<circle cx="149.5" cy="116.5" r="87.5" fill="#D9D9D9"/>
</mask>
<g mask="url(#mask0_145_114)">
<path d="M134.8 150.179C135.49 153.765 136.269 157.527 138.653 160.292C142.377 164.612 148.745 165.192 154.441 165.461C157.668 165.613 161.428 165.533 163.403 162.978C164.862 161.093 164.808 158.5 165.048 156.128C165.813 148.576 170.096 141.925 173.22 135.008C181.226 117.283 181.658 96.2839 174.391 78.2439C173.379 75.7339 172.172 73.2049 170.145 71.4109C167.865 69.3949 164.8 68.5289 161.802 68.0069C148.192 65.6339 121.941 69.0269 122.803 87.2649C123.774 107.816 130.908 129.955 134.8 150.179Z" fill="#FFE7FB"/>
<path d="M194.264 229.626C196.77 229.696 199.475 229.709 201.516 228.255C204.973 225.793 204.729 220.667 204.053 216.477C201.698 201.881 197.688 186.078 185.743 177.366C176.535 170.651 164.409 169.591 153.021 169.992C143.893 170.314 134.807 171.419 125.785 172.842C119.898 173.77 113.756 174.956 109.118 178.7C102.697 183.883 100.665 192.644 99.0273 200.732C97.7373 207.097 91.6073 221.285 97.6293 226.036C103.192 230.425 121.363 227.575 128.333 227.771C150.31 228.389 172.287 228.998 194.264 229.626Z" fill="#6987FF"/>
<path d="M138.091 217.839C139.077 222.148 140.538 226.564 143.711 229.643C146.883 232.721 152.199 233.979 155.795 231.408C160.126 228.312 159.868 221.969 159.877 216.646C159.886 210.815 160.761 204.987 162.462 199.41C164.95 191.256 169.215 183.537 170.003 175.049C170.269 172.191 169.94 168.905 167.679 167.138C166.305 166.064 164.489 165.783 162.757 165.576C153.188 164.433 136.503 161.564 133.454 174.033C131.996 179.993 134.514 188.217 135.06 194.265C135.772 202.162 136.318 210.088 138.091 217.839Z" fill="#DBC9FF"/>
<path d="M134.617 118.628C132.187 118.652 129.755 118.676 127.325 118.7C126.626 118.706 125.833 118.755 125.385 119.292C124.834 119.952 125.161 121.026 125.835 121.56C126.51 122.093 127.406 122.229 128.258 122.346C129.354 122.497 130.45 122.648 131.545 122.799C133.089 123.012 134.842 123.168 136.032 122.162C137.223 121.156 136.775 118.606 135.221 118.724" fill="#F03FA3"/>
<path d="M168.799 119.848C166.368 119.872 163.938 119.895 161.507 119.919C160.808 119.926 160.016 119.975 159.567 120.512C159.017 121.172 159.343 122.246 160.018 122.78C160.691 123.313 161.588 123.449 162.439 123.566C163.535 123.717 164.632 123.868 165.728 124.019C167.271 124.231 169.023 124.388 170.214 123.382C171.404 122.376 170.957 119.826 169.403 119.945" fill="#F03FA3"/>
<path d="M130.386 101.937C131.065 101.122 131.93 100.553 132.832 100.089C133.741 99.6347 134.715 99.3207 135.717 99.1377C137.706 98.7787 139.88 98.9277 141.687 100.007C140.662 100.295 139.73 100.41 138.805 100.609L136.074 101.105C134.247 101.416 132.458 101.783 130.386 101.937Z" fill="black"/>
<path d="M137.798 109.577C137.798 111.192 136.977 112.5 135.963 112.5C134.95 112.5 134.129 111.192 134.129 109.577C134.129 107.962 134.95 106.653 135.963 106.653C136.977 106.653 137.798 107.962 137.798 109.577Z" fill="black"/>
<path d="M170.454 102.249C168.393 101.978 166.628 101.511 164.822 101.098L162.123 100.449C161.21 100.199 160.286 100.031 159.279 99.6846C161.145 98.7106 163.323 98.6836 165.289 99.1536C166.278 99.3926 167.233 99.7616 168.115 100.266C168.989 100.781 169.821 101.397 170.454 102.249Z" fill="black"/>
<path d="M163.129 109.577C163.129 111.192 163.95 112.5 164.964 112.5C165.977 112.5 166.798 111.192 166.798 109.577C166.798 107.962 165.977 106.653 164.964 106.653C163.95 106.653 163.129 107.962 163.129 109.577Z" fill="black"/>
<path d="M148.159 107.921C148.273 108.172 147.46 114.666 145.4 118.138C145.4 118.138 144.948 120.528 149.551 121.827" stroke="black" stroke-miterlimit="10"/>
<path d="M143.569 128.452C143.569 128.452 151.656 131.133 157.924 128.59" stroke="black" stroke-miterlimit="10"/>
<path d="M137.36 144.92L136.22 156.96L135.75 161.89L132.79 163.75L116.2 174.15C105.63 180.78 98.18 191.38 95.53 203.57L90.5 226.7" stroke="black" stroke-miterlimit="10"/>
<path d="M161.45 144.04L161.87 148.5L162.69 157.09L163.14 161.89L182.69 174.15C193.26 180.78 200.71 191.38 203.36 203.57L208.39 226.7" stroke="black" stroke-miterlimit="10"/>
<path d="M181.18 90.3696C181.23 92.2596 181.24 94.0896 181.21 95.8596C181.21 95.8996 181.22 95.9296 181.22 95.9496C181.22 95.9596 181.22 95.9796 181.21 95.9896C180.88 118.3 174.94 131.07 168.26 138.37C166.01 140.83 163.68 142.66 161.45 144.04C160.71 144.5 159.98 144.9 159.27 145.26C153.58 148.15 149.02 148.15 149.02 148.15C147.87 148.15 146.76 148.07 145.7 147.92C142.59 147.49 139.83 146.44 137.36 144.92C135.75 143.93 134.27 142.74 132.92 141.39C123.86 132.41 120 116.33 118.28 104.61L118.27 104.6C118.2 104.12 118.13 103.64 118.07 103.18C117.07 95.9196 116.89 90.6496 116.73 90.3696" stroke="black" stroke-miterlimit="10"/>
<path d="M191.469 64.6968C197.278 84.7188 204.843 164.45 164.902 162.998L161.446 144.04C170.315 138.56 180.766 125.79 181.206 95.9898C181.216 95.9798 181.216 95.9798 181.216 95.9798C181.216 95.9798 181.216 95.9698 181.216 95.9498C181.216 95.9298 181.206 95.8998 181.206 95.8598C181.156 94.9598 180.396 88.9698 170.105 74.4698C170.105 74.4698 156.836 90.3698 137.356 90.3698C119.066 90.3698 117.846 99.5798 118.066 103.18C118.126 104.06 118.266 104.6 118.266 104.6L118.276 104.61C120.256 118.09 125.066 137.35 137.356 144.92L135.746 161.89L109.118 178.7C106.753 158.542 103.155 132.132 103.315 99.4218C103.315 99.4218 102.095 38.6888 159.236 44.3758C159.236 44.3758 172.83 46.7308 174.743 53.1188C174.743 53.1188 188.578 54.7378 191.469 64.6968Z" fill="black"/>
<path d="M135.746 161.89C135.746 161.89 149.288 170.66 163.136 161.89" stroke="black" stroke-miterlimit="10"/>
<path d="M133.983 162.998C133.983 162.998 149.458 176.621 164.902 162.998" stroke="black" stroke-miterlimit="10"/>
<path d="M142.356 226.7C142.356 226.7 142.246 226.19 142.046 225.25C141.816 224.18 141.476 222.56 141.046 220.53C140.726 219.03 140.356 217.29 139.956 215.39C139.636 213.91 139.306 212.33 138.946 210.67C138.596 209.02 138.236 207.3 137.856 205.53C137.536 203.99 137.196 202.41 136.856 200.81C136.496 199.1 136.136 197.38 135.766 195.67C135.436 194.09 135.096 192.51 134.766 190.95C134.396 189.2 134.036 187.48 133.686 185.81C133.336 184.19 133.006 182.6 132.686 181.09C130.846 172.33 129.496 165.82 129.536 165.79" stroke="black" stroke-miterlimit="10"/>
<path d="M120.377 171.529C120.061 171.727 118.742 185.37 118.742 185.37L131.277 198.737L127.761 206.853L140.795 219.346" stroke="black" stroke-miterlimit="10"/>
<path d="M155.826 226.7C155.826 226.7 155.936 226.19 156.136 225.25C156.366 224.18 156.706 222.56 157.136 220.53C157.456 219.03 157.826 217.29 158.226 215.39C158.546 213.91 158.886 212.33 159.236 210.67C159.586 209.02 159.956 207.3 160.326 205.53C160.656 203.99 160.986 202.41 161.326 200.81C161.686 199.1 162.046 197.38 162.416 195.67C162.746 194.09 163.086 192.51 163.406 190.95C163.776 189.2 164.146 187.48 164.496 185.81C164.836 184.19 165.176 182.6 165.486 181.09C167.336 172.33 168.686 165.82 168.646 165.79" stroke="black" stroke-miterlimit="10"/>
<path d="M177.805 171.529C178.121 171.727 179.44 185.37 179.44 185.37L166.905 198.737L170.421 206.853L157.387 219.346" stroke="black" stroke-miterlimit="10"/>
<path d="M165.486 181.09C165.176 182.6 164.836 184.19 164.496 185.81H133.686C133.336 184.19 133.006 182.6 132.686 181.09H165.486Z" fill="black"/>
<path d="M163.406 190.95C163.086 192.51 162.746 194.09 162.416 195.67H135.766C135.436 194.09 135.096 192.51 134.766 190.95H163.406Z" fill="black"/>
<path d="M161.326 200.81C160.986 202.41 160.656 203.99 160.326 205.53H137.856C137.536 203.99 137.196 202.41 136.856 200.81H161.326Z" fill="black"/>
<path d="M144.569 68.3787C144.569 74.7947 138.235 79.9967 130.421 79.9967C122.607 79.9967 116.273 74.7947 116.273 68.3787C116.273 61.9627 122.607 56.7607 130.421 56.7607C138.235 56.7607 144.569 61.9627 144.569 68.3787Z" stroke="white" stroke-width="2" stroke-miterlimit="10"/>
<path d="M181.676 68.3787C181.676 74.7947 175.341 79.9967 167.527 79.9967C159.714 79.9967 153.379 74.7947 153.379 68.3787C153.379 61.9627 159.714 56.7607 167.527 56.7607C175.341 56.7607 181.676 61.9627 181.676 68.3787Z" stroke="white" stroke-width="2" stroke-miterlimit="10"/>
<path d="M144.569 68.3788C144.569 68.3788 148.666 64.7238 153.379 68.3788" stroke="white" stroke-width="2" stroke-miterlimit="10"/>
<path d="M161.87 148.5C154.02 151.16 141.84 155.13 136.22 156.96L137.36 144.92C139.83 146.44 142.59 147.49 145.7 147.92C146.76 148.07 147.87 148.15 149.02 148.15C149.02 148.15 153.58 148.15 159.27 145.26C159.98 144.9 160.71 144.5 161.45 144.04L161.87 148.5Z" fill="black"/>
</g>
<path d="M48.8516 245.094C48.7891 245.031 48.7578 244.914 48.7578 244.742C48.7578 244.414 48.7734 244.25 48.8047 244.25C48.9297 244.25 49.1172 244.211 49.3672 244.133C49.6172 244.055 49.8594 243.961 50.0938 243.852C50.3438 243.727 50.5 243.609 50.5625 243.5C50.6875 243.312 50.8203 243.086 50.9609 242.82C51.1016 242.539 51.2031 242.312 51.2656 242.141L51.3828 241.859L56.5625 229.953C56.7344 229.547 57.0234 229.344 57.4297 229.344C57.6641 229.344 57.8516 229.445 57.9922 229.648L62.7969 241.531C62.9375 241.891 63.0703 242.234 63.1953 242.562C63.3359 242.875 63.4609 243.172 63.5703 243.453C63.6328 243.609 63.7734 243.75 63.9922 243.875C64.2109 243.984 64.4453 244.07 64.6953 244.133C64.9609 244.195 65.1641 244.227 65.3047 244.227C65.3672 244.227 65.3984 244.359 65.3984 244.625C65.3984 244.875 65.3828 245.031 65.3516 245.094L63.9219 245C63.4688 244.969 63.0781 244.945 62.75 244.93C62.4219 244.898 62.1562 244.891 61.9531 244.906L58.4141 245.094C58.3516 245.031 58.3203 244.867 58.3203 244.602C58.3203 244.352 58.3516 244.227 58.4141 244.227C58.7578 244.227 59.1094 244.156 59.4688 244.016C59.8281 243.859 60.0078 243.656 60.0078 243.406C60.0078 243.391 59.9609 243.25 59.8672 242.984C59.7891 242.719 59.6406 242.336 59.4219 241.836L58.7188 240.125C58.6562 240.062 58.6016 240.031 58.5547 240.031C58.3984 240.016 58.1328 240.008 57.7578 240.008C57.3828 240.008 56.8984 240.008 56.3047 240.008C55.7891 240.008 55.3281 240.008 54.9219 240.008C54.5312 240.008 54.2031 240.016 53.9375 240.031C53.875 240.031 53.8203 240.07 53.7734 240.148L53 241.93C52.7344 242.555 52.5781 243.008 52.5312 243.289C52.5 243.57 52.6406 243.789 52.9531 243.945C53.2344 244.086 53.4766 244.172 53.6797 244.203C53.8984 244.219 54.0859 244.227 54.2422 244.227C54.2891 244.242 54.3125 244.367 54.3125 244.602C54.3125 244.805 54.2969 244.969 54.2656 245.094C53.5625 245.047 53.0469 245.008 52.7188 244.977C52.4062 244.945 52.1719 244.93 52.0156 244.93C51.8594 244.914 51.6875 244.914 51.5 244.93C51.3281 244.945 51.0469 244.969 50.6562 245C50.2656 245.016 49.6641 245.047 48.8516 245.094ZM56.3047 238.602C56.6172 238.602 56.9062 238.602 57.1719 238.602C57.4531 238.586 57.7188 238.57 57.9688 238.555L58.0391 238.438L56.3516 234.242L54.5234 238.438C54.5234 238.5 54.5391 238.531 54.5703 238.531C55.0391 238.578 55.6172 238.602 56.3047 238.602ZM66.0781 245.094C66.0156 245.031 65.9844 244.867 65.9844 244.602C65.9844 244.352 66.0156 244.227 66.0781 244.227C66.2031 244.227 66.3828 244.195 66.6172 244.133C66.8516 244.055 67.0703 243.969 67.2734 243.875C67.4766 243.781 67.5859 243.703 67.6016 243.641C67.7109 243.203 67.7656 242.609 67.7656 241.859V232.555C67.7656 232.195 67.75 231.875 67.7188 231.594C67.7031 231.312 67.6797 231.07 67.6484 230.867C67.5859 230.617 67.1797 230.492 66.4297 230.492H66.2188C66.125 230.492 66.0781 230.336 66.0781 230.023C66.0781 229.758 66.125 229.625 66.2188 229.625C67.125 229.547 67.9766 229.414 68.7734 229.227C69.5859 229.039 70.1641 228.891 70.5078 228.781L70.7422 228.711H70.7891C70.8516 228.711 70.9141 228.758 70.9766 228.852C71.0391 228.945 71.0781 229.031 71.0938 229.109C70.9219 229.844 70.8359 230.633 70.8359 231.477L70.8125 241.508C70.8125 242.539 70.8672 243.25 70.9766 243.641C71.0078 243.703 71.125 243.781 71.3281 243.875C71.5312 243.969 71.7422 244.055 71.9609 244.133C72.1953 244.195 72.3594 244.227 72.4531 244.227C72.4844 244.227 72.5078 244.289 72.5234 244.414C72.5391 244.539 72.5469 244.672 72.5469 244.812C72.5469 244.953 72.5312 245.047 72.5 245.094C72.4062 245.094 72.2266 245.078 71.9609 245.047C71.6953 245.031 71.3828 245.016 71.0234 245C70.6797 244.969 70.3516 244.945 70.0391 244.93C69.7266 244.914 69.4766 244.906 69.2891 244.906C69.1016 244.906 68.8438 244.914 68.5156 244.93C68.2031 244.945 67.875 244.969 67.5312 245C67.1875 245.016 66.8828 245.031 66.6172 245.047C66.3516 245.078 66.1719 245.094 66.0781 245.094ZM78.8281 245.164C77.875 245.164 76.9922 244.922 76.1797 244.438C75.3828 243.953 74.7422 243.305 74.2578 242.492C73.7891 241.68 73.5547 240.789 73.5547 239.82C73.5547 238.82 73.7656 237.922 74.1875 237.125C74.625 236.328 75.2266 235.695 75.9922 235.227C76.7578 234.758 77.6406 234.523 78.6406 234.523C79.625 234.523 80.4609 234.758 81.1484 235.227C81.8516 235.68 82.3828 236.25 82.7422 236.938C83.1172 237.609 83.3047 238.289 83.3047 238.977C83.3047 239.336 83.2266 239.57 83.0703 239.68C82.9297 239.789 82.6406 239.844 82.2031 239.844H76.9062C76.8125 239.844 76.7656 239.898 76.7656 240.008C76.7656 240.57 76.8672 241.102 77.0703 241.602C77.2891 242.102 77.6016 242.508 78.0078 242.82C78.4297 243.133 78.9375 243.289 79.5312 243.289C80.0625 243.289 80.5547 243.211 81.0078 243.055C81.3203 242.961 81.5625 242.875 81.7344 242.797C81.9062 242.719 82.0625 242.633 82.2031 242.539C82.3594 242.43 82.5391 242.297 82.7422 242.141C82.8828 242.203 82.9531 242.352 82.9531 242.586C82.9531 242.789 82.9219 242.945 82.8594 243.055C82.7656 243.305 82.5156 243.594 82.1094 243.922C81.7188 244.25 81.2344 244.539 80.6562 244.789C80.0938 245.039 79.4844 245.164 78.8281 245.164ZM76.9297 238.555H79.9062C80.125 238.555 80.2344 238.406 80.2344 238.109C80.2344 237.516 80.0703 236.984 79.7422 236.516C79.4297 236.047 79.0234 235.812 78.5234 235.812C78.0703 235.812 77.7109 235.977 77.4453 236.305C77.1953 236.617 77.0156 236.969 76.9062 237.359C76.8125 237.75 76.7656 238.07 76.7656 238.32C76.7656 238.477 76.8203 238.555 76.9297 238.555ZM84.0547 245.094C84.0391 245.031 84.0234 244.961 84.0078 244.883C84.0078 244.805 84.0078 244.727 84.0078 244.648C84.0078 244.367 84.0391 244.227 84.1016 244.227C84.4922 244.164 84.8828 244.055 85.2734 243.898C85.6797 243.727 85.9531 243.562 86.0938 243.406L88.625 240.617C88.7031 240.539 88.7422 240.453 88.7422 240.359C88.7422 240.281 88.7109 240.211 88.6484 240.148L85.6484 236.375C85.4453 236.109 85.1875 235.898 84.875 235.742C84.5781 235.586 84.3047 235.508 84.0547 235.508C83.9766 235.508 83.9375 235.352 83.9375 235.039C83.9375 234.852 83.9609 234.711 84.0078 234.617C84.9766 234.68 85.7266 234.727 86.2578 234.758C86.7891 234.773 87.1094 234.781 87.2188 234.781C87.2969 234.781 87.6016 234.773 88.1328 234.758C88.6641 234.727 89.4141 234.68 90.3828 234.617C90.4297 234.68 90.4531 234.82 90.4531 235.039C90.4531 235.336 90.4141 235.484 90.3359 235.484C90.1172 235.484 89.8828 235.539 89.6328 235.648C89.3984 235.758 89.2812 235.891 89.2812 236.047C89.2812 236.125 89.3203 236.219 89.3984 236.328L90.8516 238.133C91.3203 237.492 91.6875 237.016 91.9531 236.703C92.2188 236.375 92.3516 236.133 92.3516 235.977C92.3516 235.648 91.8672 235.484 90.8984 235.484C90.8359 235.484 90.8047 235.344 90.8047 235.062C90.8047 234.828 90.8359 234.68 90.8984 234.617C91.8203 234.68 92.5234 234.727 93.0078 234.758C93.5078 234.773 93.7969 234.781 93.875 234.781C93.9531 234.781 94.2266 234.773 94.6953 234.758C95.1641 234.727 95.8125 234.68 96.6406 234.617C96.6875 234.711 96.7109 234.852 96.7109 235.039C96.7109 235.336 96.6875 235.484 96.6406 235.484C95.5469 235.594 94.8516 235.812 94.5547 236.141L91.9531 239C91.8594 239.109 91.8125 239.195 91.8125 239.258C91.8125 239.352 91.8438 239.43 91.9062 239.492L94.7188 243.031C95.2656 243.719 95.8984 244.133 96.6172 244.273C96.6797 244.273 96.7109 244.438 96.7109 244.766C96.7109 244.922 96.6797 245.031 96.6172 245.094C96.0234 245.062 95.4766 245.023 94.9766 244.977C94.4922 244.93 94.0078 244.906 93.5234 244.906C92.8984 244.906 92.3359 244.93 91.8359 244.977C91.3516 245.023 90.8359 245.062 90.2891 245.094L90.2422 244.812C90.2422 244.422 90.2734 244.227 90.3359 244.227C90.5391 244.211 90.7656 244.133 91.0156 243.992C91.2812 243.836 91.4141 243.664 91.4141 243.477C91.4141 243.414 91.375 243.344 91.2969 243.266L89.7734 241.484L88.4375 243.172C88.3281 243.328 88.2734 243.477 88.2734 243.617C88.2734 243.773 88.4062 243.898 88.6719 243.992C88.8906 244.07 89.0859 244.125 89.2578 244.156C89.4453 244.172 89.6172 244.195 89.7734 244.227C89.8047 244.227 89.8203 244.367 89.8203 244.648C89.8203 244.883 89.7891 245.031 89.7266 245.094C89.6484 245.078 89.4375 245.055 89.0938 245.023C88.75 245.008 88.375 244.984 87.9688 244.953C87.5781 244.922 87.2422 244.906 86.9609 244.906C86.4141 244.906 85.9141 244.93 85.4609 244.977C85.0078 245.023 84.5391 245.062 84.0547 245.094ZM100.953 245.164C100.094 245.164 99.4062 244.93 98.8906 244.461C98.3906 243.977 98.1406 243.375 98.1406 242.656C98.1406 242.047 98.3281 241.516 98.7031 241.062C99.0938 240.609 99.5781 240.25 100.156 239.984C100.375 239.891 100.578 239.812 100.766 239.75C100.953 239.672 101.125 239.602 101.281 239.539C101.875 239.352 102.352 239.219 102.711 239.141C103.07 239.047 103.336 238.969 103.508 238.906C103.648 238.859 103.719 238.742 103.719 238.555V237.711C103.719 236.43 103.328 235.789 102.547 235.789C101.641 235.789 101.188 236.312 101.188 237.359C101.188 237.703 101.047 237.961 100.766 238.133C100.484 238.289 100.172 238.367 99.8281 238.367C99.1094 238.367 98.6172 238.133 98.3516 237.664C98.3516 237.258 98.4922 236.867 98.7734 236.492C99.0703 236.117 99.4531 235.781 99.9219 235.484C100.406 235.172 100.945 234.93 101.539 234.758C102.148 234.57 102.758 234.477 103.367 234.477C104.461 234.477 105.297 234.781 105.875 235.391C106.469 235.984 106.766 237.07 106.766 238.648V242.445C106.766 242.977 106.953 243.242 107.328 243.242C107.609 243.242 107.875 243.141 108.125 242.938C108.234 243 108.289 243.117 108.289 243.289C108.289 243.695 108.234 243.984 108.125 244.156C107.906 244.359 107.547 244.578 107.047 244.812C106.562 245.031 106.102 245.141 105.664 245.141C105.289 245.141 104.93 245.031 104.586 244.812C104.242 244.578 104.016 244.312 103.906 244.016C103.891 244.016 103.805 244.07 103.648 244.18C103.492 244.289 103.375 244.375 103.297 244.438C102.984 244.641 102.625 244.812 102.219 244.953C101.812 245.094 101.391 245.164 100.953 245.164ZM102.43 243.477C102.836 243.477 103.148 243.383 103.367 243.195C103.602 242.992 103.719 242.75 103.719 242.469V240.102L102.5 240.523C102.172 240.633 101.867 240.797 101.586 241.016C101.32 241.234 101.188 241.523 101.188 241.883C101.188 242.445 101.305 242.852 101.539 243.102C101.789 243.352 102.086 243.477 102.43 243.477ZM109.438 245.094C109.375 245.031 109.344 244.867 109.344 244.602C109.344 244.352 109.375 244.227 109.438 244.227C109.562 244.227 109.734 244.195 109.953 244.133C110.188 244.055 110.406 243.969 110.609 243.875C110.828 243.781 110.945 243.703 110.961 243.641C111.07 243.203 111.125 242.609 111.125 241.859V238.648C111.125 237.773 110.984 237.188 110.703 236.891C110.578 236.734 110.406 236.625 110.188 236.562C109.984 236.5 109.805 236.461 109.648 236.445C109.492 236.414 109.414 236.383 109.414 236.352C109.414 235.805 109.453 235.531 109.531 235.531C109.938 235.531 110.516 235.445 111.266 235.273C112.016 235.086 112.867 234.891 113.82 234.688L113.938 234.664C113.953 234.648 113.984 234.641 114.031 234.641L114.078 234.617C114.156 234.617 114.234 234.672 114.312 234.781C114.406 234.875 114.445 234.953 114.43 235.016L114.336 235.742C114.336 235.82 114.344 235.867 114.359 235.883C114.391 235.883 114.445 235.844 114.523 235.766C115.383 234.953 116.469 234.547 117.781 234.547C118.688 234.547 119.422 234.93 119.984 235.695C120.562 236.461 120.852 237.625 120.852 239.188V241.508C120.852 242.539 120.906 243.25 121.016 243.641C121.047 243.703 121.164 243.781 121.367 243.875C121.57 243.969 121.781 244.055 122 244.133C122.234 244.195 122.398 244.227 122.492 244.227C122.523 244.227 122.547 244.289 122.562 244.414C122.578 244.539 122.586 244.672 122.586 244.812C122.586 244.953 122.57 245.047 122.539 245.094C122.445 245.094 122.266 245.078 122 245.047C121.734 245.031 121.422 245.016 121.062 245C120.719 244.969 120.391 244.945 120.078 244.93C119.766 244.914 119.516 244.906 119.328 244.906C119.078 244.906 118.727 244.922 118.273 244.953C117.836 244.984 117.414 245.008 117.008 245.023C116.602 245.055 116.336 245.078 116.211 245.094C116.148 245.031 116.117 244.867 116.117 244.602C116.117 244.352 116.148 244.227 116.211 244.227C116.336 244.227 116.5 244.195 116.703 244.133C116.922 244.055 117.125 243.969 117.312 243.875C117.516 243.781 117.625 243.703 117.641 243.641C117.75 243.203 117.805 242.609 117.805 241.859V239.75C117.805 238.594 117.641 237.773 117.312 237.289C117 236.789 116.492 236.539 115.789 236.539C115.305 236.539 114.914 236.633 114.617 236.82C114.32 236.992 114.172 237.242 114.172 237.57V241.508C114.172 242.539 114.227 243.25 114.336 243.641C114.367 243.703 114.477 243.781 114.664 243.875C114.852 243.969 115.055 244.055 115.273 244.133C115.492 244.195 115.641 244.227 115.719 244.227C115.75 244.227 115.773 244.289 115.789 244.414C115.805 244.539 115.812 244.672 115.812 244.812C115.812 244.953 115.797 245.047 115.766 245.094C115.641 245.078 115.375 245.055 114.969 245.023C114.562 245.008 114.133 244.984 113.68 244.953C113.242 244.922 112.898 244.906 112.648 244.906C112.461 244.906 112.203 244.914 111.875 244.93C111.562 244.945 111.234 244.969 110.891 245C110.547 245.016 110.242 245.031 109.977 245.047C109.711 245.078 109.531 245.094 109.438 245.094ZM128.352 245.141C127.508 245.141 126.711 244.93 125.961 244.508C125.227 244.086 124.625 243.492 124.156 242.727C123.703 241.961 123.477 241.062 123.477 240.031C123.477 238.984 123.719 238.047 124.203 237.219C124.703 236.391 125.375 235.734 126.219 235.25C127.078 234.766 128.039 234.523 129.102 234.523C129.758 234.523 130.305 234.594 130.742 234.734C130.789 234.734 130.812 234.625 130.812 234.406V232.555C130.812 231.898 130.766 231.336 130.672 230.867C130.609 230.617 130.203 230.492 129.453 230.492H129.242C129.148 230.492 129.102 230.336 129.102 230.023C129.102 229.758 129.148 229.625 129.242 229.625C130.148 229.547 131 229.414 131.797 229.227C132.609 229.039 133.188 228.891 133.531 228.781L133.766 228.711H133.812C133.875 228.711 133.938 228.758 134 228.852C134.062 228.945 134.102 229.031 134.117 229.109C133.945 229.844 133.859 230.633 133.859 231.477V241.555C133.859 241.898 133.875 242.273 133.906 242.68C133.938 243.07 134.008 243.32 134.117 243.43C134.242 243.523 134.383 243.578 134.539 243.594C134.695 243.594 134.898 243.609 135.148 243.641L135.383 243.664C135.43 243.68 135.453 243.773 135.453 243.945C135.453 244.336 135.406 244.531 135.312 244.531C134.922 244.547 134.469 244.594 133.953 244.672C133.453 244.75 132.961 244.828 132.477 244.906C131.992 244.984 131.602 245.047 131.305 245.094L130.953 245.141C130.859 245.156 130.812 245.023 130.812 244.742V244.25C130.812 244.125 130.781 244.094 130.719 244.156C130.062 244.812 129.273 245.141 128.352 245.141ZM128.961 243.711C129.492 243.711 129.93 243.562 130.273 243.266C130.633 242.953 130.812 242.578 130.812 242.141V237.875C130.812 237.688 130.797 237.508 130.766 237.336C130.734 237.164 130.664 236.945 130.555 236.68C130.445 236.414 130.25 236.203 129.969 236.047C129.703 235.875 129.367 235.789 128.961 235.789C128.227 235.789 127.688 236.086 127.344 236.68C127.016 237.258 126.852 238.188 126.852 239.469C126.852 242.297 127.555 243.711 128.961 243.711ZM136.766 245.094C136.703 245.031 136.672 244.867 136.672 244.602C136.672 244.352 136.703 244.227 136.766 244.227C136.891 244.227 137.07 244.195 137.305 244.133C137.539 244.055 137.758 243.969 137.961 243.875C138.164 243.781 138.273 243.703 138.289 243.641C138.398 243.203 138.453 242.609 138.453 241.859V238.648C138.453 237.773 138.312 237.188 138.031 236.891C137.906 236.734 137.734 236.625 137.516 236.562C137.312 236.5 137.133 236.461 136.977 236.445C136.82 236.414 136.742 236.383 136.742 236.352C136.742 235.805 136.781 235.531 136.859 235.531C137.266 235.531 137.828 235.445 138.547 235.273C139.281 235.086 140.055 234.906 140.867 234.734L141.406 234.617C141.484 234.617 141.562 234.672 141.641 234.781C141.719 234.875 141.758 234.953 141.758 235.016C141.742 235.109 141.719 235.297 141.688 235.578C141.672 235.859 141.656 236.016 141.641 236.047C142.422 235.031 143.305 234.523 144.289 234.523C144.992 234.523 145.664 234.812 146.305 235.391C146.305 236.203 146.203 236.805 146 237.195C145.812 237.586 145.461 237.781 144.945 237.781C144.633 237.781 144.273 237.602 143.867 237.242C143.461 236.883 143.102 236.703 142.789 236.703C142.477 236.703 142.227 236.828 142.039 237.078C141.852 237.312 141.711 237.617 141.617 237.992C141.539 238.367 141.5 238.758 141.5 239.164V241.531C141.5 242.547 141.555 243.25 141.664 243.641C141.695 243.703 141.805 243.781 141.992 243.875C142.18 243.969 142.383 244.055 142.602 244.133C142.82 244.195 142.969 244.227 143.047 244.227C143.078 244.227 143.102 244.289 143.117 244.414C143.133 244.539 143.141 244.672 143.141 244.812C143.141 244.953 143.125 245.047 143.094 245.094C142.969 245.078 142.703 245.055 142.297 245.023C141.891 245.008 141.461 244.984 141.008 244.953C140.57 244.922 140.227 244.906 139.977 244.906C139.789 244.906 139.531 244.914 139.203 244.93C138.891 244.945 138.562 244.969 138.219 245C137.875 245.016 137.57 245.031 137.305 245.047C137.039 245.078 136.859 245.094 136.766 245.094ZM150.406 245.164C149.547 245.164 148.859 244.93 148.344 244.461C147.844 243.977 147.594 243.375 147.594 242.656C147.594 242.047 147.781 241.516 148.156 241.062C148.547 240.609 149.031 240.25 149.609 239.984C149.828 239.891 150.031 239.812 150.219 239.75C150.406 239.672 150.578 239.602 150.734 239.539C151.328 239.352 151.805 239.219 152.164 239.141C152.523 239.047 152.789 238.969 152.961 238.906C153.102 238.859 153.172 238.742 153.172 238.555V237.711C153.172 236.43 152.781 235.789 152 235.789C151.094 235.789 150.641 236.312 150.641 237.359C150.641 237.703 150.5 237.961 150.219 238.133C149.938 238.289 149.625 238.367 149.281 238.367C148.562 238.367 148.07 238.133 147.805 237.664C147.805 237.258 147.945 236.867 148.227 236.492C148.523 236.117 148.906 235.781 149.375 235.484C149.859 235.172 150.398 234.93 150.992 234.758C151.602 234.57 152.211 234.477 152.82 234.477C153.914 234.477 154.75 234.781 155.328 235.391C155.922 235.984 156.219 237.07 156.219 238.648V242.445C156.219 242.977 156.406 243.242 156.781 243.242C157.062 243.242 157.328 243.141 157.578 242.938C157.688 243 157.742 243.117 157.742 243.289C157.742 243.695 157.688 243.984 157.578 244.156C157.359 244.359 157 244.578 156.5 244.812C156.016 245.031 155.555 245.141 155.117 245.141C154.742 245.141 154.383 245.031 154.039 244.812C153.695 244.578 153.469 244.312 153.359 244.016C153.344 244.016 153.258 244.07 153.102 244.18C152.945 244.289 152.828 244.375 152.75 244.438C152.438 244.641 152.078 244.812 151.672 244.953C151.266 245.094 150.844 245.164 150.406 245.164ZM151.883 243.477C152.289 243.477 152.602 243.383 152.82 243.195C153.055 242.992 153.172 242.75 153.172 242.469V240.102L151.953 240.523C151.625 240.633 151.32 240.797 151.039 241.016C150.773 241.234 150.641 241.523 150.641 241.883C150.641 242.445 150.758 242.852 150.992 243.102C151.242 243.352 151.539 243.477 151.883 243.477ZM168.805 245.234C168.18 245.234 167.5 245.18 166.766 245.07C166.031 244.977 165.227 244.828 164.352 244.625C164.273 244.281 164.188 243.852 164.094 243.336C164.016 242.82 163.945 242.32 163.883 241.836C163.836 241.336 163.812 240.969 163.812 240.734C163.859 240.578 164 240.5 164.234 240.5C164.719 240.5 164.969 240.547 164.984 240.641C165.078 241.109 165.289 241.602 165.617 242.117C165.945 242.617 166.344 243.039 166.812 243.383C167.297 243.727 167.805 243.898 168.336 243.898C169.883 243.898 170.656 243.047 170.656 241.344C170.656 240.891 170.477 240.477 170.117 240.102C169.773 239.727 169.367 239.391 168.898 239.094C168.445 238.797 168.055 238.539 167.727 238.32L167.023 237.852C166.492 237.492 165.992 237.125 165.523 236.75C165.055 236.359 164.672 235.914 164.375 235.414C164.094 234.898 163.953 234.273 163.953 233.539C163.953 232.742 164.195 232.023 164.68 231.383C165.164 230.742 165.789 230.234 166.555 229.859C167.32 229.484 168.117 229.297 168.945 229.297C169.273 229.297 169.609 229.32 169.953 229.367C170.312 229.414 170.617 229.461 170.867 229.508C171.336 229.602 171.734 229.695 172.062 229.789C172.406 229.867 172.68 229.922 172.883 229.953C172.961 230.719 173.023 231.422 173.07 232.062C173.117 232.703 173.141 233.297 173.141 233.844C173.078 234 172.961 234.078 172.789 234.078C172.32 234.078 172.078 234.023 172.062 233.914C172 233.383 171.828 232.867 171.547 232.367C171.266 231.867 170.906 231.453 170.469 231.125C170.031 230.781 169.531 230.609 168.969 230.609C168.438 230.609 167.984 230.773 167.609 231.102C167.25 231.43 167.07 231.953 167.07 232.672C167.07 233.312 167.352 233.875 167.914 234.359C168.492 234.844 169.234 235.375 170.141 235.953L171.336 236.703C171.773 236.969 172.188 237.266 172.578 237.594C172.969 237.906 173.289 238.32 173.539 238.836C173.789 239.336 173.914 240.023 173.914 240.898C173.914 241.727 173.672 242.469 173.188 243.125C172.719 243.781 172.094 244.297 171.312 244.672C170.547 245.047 169.711 245.234 168.805 245.234ZM179.75 245.164C178.891 245.164 178.148 244.898 177.523 244.367C176.914 243.82 176.609 242.945 176.609 241.742V236.328H175.086C174.961 236.328 174.898 236.086 174.898 235.602C174.898 235.492 174.914 235.406 174.945 235.344C175.383 235.125 175.773 234.914 176.117 234.711C176.477 234.492 176.789 234.281 177.055 234.078C177.742 233.531 178.242 233.117 178.555 232.836C178.867 232.555 179.031 232.406 179.047 232.391C179.172 232.391 179.305 232.422 179.445 232.484C179.586 232.531 179.656 232.586 179.656 232.648V234.945H182.188C182.312 234.945 182.375 235.023 182.375 235.18C182.375 235.648 182.297 236.031 182.141 236.328H179.656V241.883C179.656 243.07 180.078 243.664 180.922 243.664C181.359 243.664 181.664 243.609 181.836 243.5C182.023 243.375 182.148 243.312 182.211 243.312C182.273 243.312 182.336 243.391 182.398 243.547C182.477 243.703 182.516 243.82 182.516 243.898C182.516 244.023 182.359 244.188 182.047 244.391C181.75 244.594 181.383 244.773 180.945 244.93C180.523 245.086 180.125 245.164 179.75 245.164ZM189.219 245.164C188.203 245.164 187.273 244.93 186.43 244.461C185.602 243.977 184.938 243.336 184.438 242.539C183.953 241.727 183.711 240.828 183.711 239.844C183.711 238.844 183.953 237.945 184.438 237.148C184.938 236.352 185.602 235.719 186.43 235.25C187.273 234.766 188.203 234.523 189.219 234.523C190.25 234.523 191.18 234.766 192.008 235.25C192.836 235.719 193.492 236.352 193.977 237.148C194.477 237.945 194.727 238.844 194.727 239.844C194.727 240.828 194.484 241.727 194 242.539C193.516 243.336 192.852 243.977 192.008 244.461C191.18 244.93 190.25 245.164 189.219 245.164ZM189.453 243.875C189.891 243.875 190.25 243.727 190.531 243.43C190.812 243.133 191.016 242.742 191.141 242.258C191.281 241.758 191.352 241.227 191.352 240.664C191.352 237.43 190.531 235.812 188.891 235.812C188.453 235.812 188.094 235.969 187.812 236.281C187.547 236.594 187.352 237 187.227 237.5C187.102 238 187.039 238.539 187.039 239.117C187.039 242.289 187.844 243.875 189.453 243.875ZM196.062 245.094C196 245.031 195.969 244.867 195.969 244.602C195.969 244.352 196 244.227 196.062 244.227C196.188 244.227 196.367 244.195 196.602 244.133C196.836 244.055 197.055 243.969 197.258 243.875C197.461 243.781 197.57 243.703 197.586 243.641C197.695 243.203 197.75 242.609 197.75 241.859V232.555C197.75 232.195 197.734 231.875 197.703 231.594C197.688 231.312 197.664 231.07 197.633 230.867C197.57 230.617 197.164 230.492 196.414 230.492H196.203C196.109 230.492 196.062 230.336 196.062 230.023C196.062 229.758 196.109 229.625 196.203 229.625C197.109 229.547 197.961 229.414 198.758 229.227C199.57 229.039 200.148 228.891 200.492 228.781L200.727 228.711H200.773C200.836 228.711 200.898 228.758 200.961 228.852C201.023 228.945 201.062 229.031 201.078 229.109C200.906 229.844 200.82 230.633 200.82 231.477L200.797 241.508C200.797 242.539 200.852 243.25 200.961 243.641C200.992 243.703 201.109 243.781 201.312 243.875C201.516 243.969 201.727 244.055 201.945 244.133C202.18 244.195 202.344 244.227 202.438 244.227C202.469 244.227 202.492 244.289 202.508 244.414C202.523 244.539 202.531 244.672 202.531 244.812C202.531 244.953 202.516 245.047 202.484 245.094C202.391 245.094 202.211 245.078 201.945 245.047C201.68 245.031 201.367 245.016 201.008 245C200.664 244.969 200.336 244.945 200.023 244.93C199.711 244.914 199.461 244.906 199.273 244.906C199.086 244.906 198.828 244.914 198.5 244.93C198.188 244.945 197.859 244.969 197.516 245C197.172 245.016 196.867 245.031 196.602 245.047C196.336 245.078 196.156 245.094 196.062 245.094ZM204.242 245C203.93 244.812 203.773 244.633 203.773 244.461C203.773 244.43 203.805 244.359 203.867 244.25L208.578 236.352L207.148 236.328C206.742 236.312 206.383 236.398 206.07 236.586C205.758 236.773 205.5 237 205.297 237.266C205.094 237.516 204.945 237.75 204.852 237.969C204.805 238.062 204.609 238.109 204.266 238.109C204.078 238.109 203.984 238.094 203.984 238.062C203.984 238.031 203.992 237.906 204.008 237.688C204.039 237.469 204.086 237.164 204.148 236.773C204.273 235.992 204.344 235.375 204.359 234.922C205.281 235.016 206.023 235.062 206.586 235.062H209.445C209.945 235.062 210.445 235.047 210.945 235.016C211.445 234.984 211.953 234.938 212.469 234.875C212.516 234.938 212.539 235.125 212.539 235.438L207.664 243.242C207.555 243.398 207.5 243.508 207.5 243.57C207.5 243.68 207.594 243.734 207.781 243.734H209.234C210.484 243.734 211.328 243.141 211.766 241.953C211.812 241.812 212.023 241.742 212.398 241.742C212.508 241.742 212.594 241.773 212.656 241.836L212.258 245H204.242Z" fill="#212529"/>
<path d="M53.315 275.1C54.865 275.1 56.08 275.53 56.96 276.39C57.85 277.24 58.295 278.46 58.295 280.05C58.295 281.64 57.85 282.865 56.96 283.725C56.08 284.575 54.865 285 53.315 285H50.12V275.1H53.315ZM53.435 283.875C54.565 283.875 55.445 283.54 56.075 282.87C56.715 282.19 57.035 281.25 57.035 280.05C57.035 278.85 56.715 277.915 56.075 277.245C55.445 276.565 54.565 276.225 53.435 276.225H51.32V283.875H53.435ZM60.9305 285V275.1H67.8755V276.225H62.1305V279.42H66.6005V280.545H62.1305V283.875H68.1005V285H60.9305ZM73.676 274.95C74.546 274.95 75.296 275.13 75.926 275.49C76.556 275.84 77.081 276.36 77.501 277.05L76.496 277.83C76.126 277.19 75.706 276.74 75.236 276.48C74.776 276.21 74.216 276.075 73.556 276.075C73.026 276.075 72.586 276.15 72.236 276.3C71.896 276.45 71.646 276.65 71.486 276.9C71.326 277.14 71.246 277.415 71.246 277.725C71.246 278.075 71.356 278.385 71.576 278.655C71.796 278.915 72.236 279.12 72.896 279.27L75.041 279.75C75.991 279.96 76.651 280.28 77.021 280.71C77.401 281.13 77.591 281.655 77.591 282.285C77.591 282.845 77.431 283.345 77.111 283.785C76.801 284.215 76.361 284.55 75.791 284.79C75.221 285.03 74.551 285.15 73.781 285.15C73.061 285.15 72.426 285.055 71.876 284.865C71.336 284.665 70.871 284.4 70.481 284.07C70.091 283.74 69.771 283.37 69.521 282.96L70.571 282.105C70.761 282.485 71.006 282.82 71.306 283.11C71.606 283.4 71.966 283.625 72.386 283.785C72.816 283.945 73.306 284.025 73.856 284.025C74.366 284.025 74.806 283.965 75.176 283.845C75.556 283.715 75.846 283.53 76.046 283.29C76.246 283.04 76.346 282.74 76.346 282.39C76.346 282.07 76.241 281.785 76.031 281.535C75.821 281.275 75.426 281.08 74.846 280.95L72.521 280.425C71.911 280.285 71.416 280.095 71.036 279.855C70.666 279.605 70.396 279.315 70.226 278.985C70.066 278.645 69.986 278.28 69.986 277.89C69.986 277.36 70.131 276.875 70.421 276.435C70.721 275.985 71.146 275.625 71.696 275.355C72.256 275.085 72.916 274.95 73.676 274.95ZM81.3054 275.1V285H80.1054V275.1H81.3054ZM88.5338 285.15C87.5938 285.15 86.7788 284.945 86.0888 284.535C85.4088 284.115 84.8788 283.525 84.4988 282.765C84.1288 282.005 83.9438 281.1 83.9438 280.05C83.9438 279 84.1388 278.095 84.5288 277.335C84.9288 276.575 85.4838 275.99 86.1938 275.58C86.9038 275.16 87.7188 274.95 88.6388 274.95C89.6188 274.95 90.4138 275.135 91.0238 275.505C91.6438 275.875 92.1438 276.445 92.5238 277.215L91.4288 277.815C91.2088 277.245 90.8588 276.815 90.3788 276.525C89.9088 276.225 89.3288 276.075 88.6388 276.075C87.9688 276.075 87.3738 276.235 86.8538 276.555C86.3438 276.865 85.9388 277.32 85.6388 277.92C85.3488 278.51 85.2038 279.22 85.2038 280.05C85.2038 280.88 85.3288 281.595 85.5788 282.195C85.8388 282.785 86.2188 283.24 86.7188 283.56C87.2288 283.87 87.8488 284.025 88.5788 284.025C88.9888 284.025 89.3688 283.975 89.7188 283.875C90.0788 283.765 90.3888 283.605 90.6488 283.395C90.9188 283.185 91.1288 282.92 91.2788 282.6C91.4288 282.28 91.5038 281.905 91.5038 281.475V281.13H88.3538V280.005H92.5988V285H91.6538L91.5938 283.155L91.8488 283.2C91.5888 283.82 91.1788 284.3 90.6188 284.64C90.0588 284.98 89.3638 285.15 88.5338 285.15ZM103.168 275.1V285H101.683L97.5433 278.37L96.4933 276.51H96.4783L96.5383 278.01V285H95.3983V275.1H96.8833L101.008 281.7L102.073 283.605H102.088L102.028 282.09V275.1H103.168ZM106.414 285V275.1H113.359V276.225H107.614V279.42H112.084V280.545H107.614V283.875H113.584V285H106.414ZM119.729 275.1C120.739 275.1 121.549 275.36 122.159 275.88C122.769 276.4 123.074 277.105 123.074 277.995C123.074 278.885 122.764 279.58 122.144 280.08C121.534 280.57 120.724 280.815 119.714 280.815L119.609 280.89H117.179V285H115.979V275.1H119.729ZM119.714 279.765C120.424 279.765 120.949 279.62 121.289 279.33C121.639 279.03 121.814 278.585 121.814 277.995C121.814 277.405 121.639 276.965 121.289 276.675C120.949 276.375 120.424 276.225 119.714 276.225H117.179V279.765H119.714ZM120.404 280.005L123.674 285H122.249L119.399 280.665L120.404 280.005Z" fill="#212529" fill-opacity="0.75"/>
<defs>
<filter id="filter0_d_145_114" x="0" y="0" width="305" height="325" filterUnits="userSpaceOnUse" color-interpolation-filters="sRGB">
<feFlood flood-opacity="0" result="BackgroundImageFix"/>
<feColorMatrix in="SourceAlpha" type="matrix" values="0 0 0 0 0 0 0 0 0 0 0 0 0 0 0 0 0 0 127 0" result="hardAlpha"/>
<feMorphology radius="1" operator="dilate" in="SourceAlpha" result="effect1_dropShadow_145_114"/>
<feOffset dx="3" dy="4"/>
<feGaussianBlur stdDeviation="6"/>
<feComposite in2="hardAlpha" operator="out"/>
<feColorMatrix type="matrix" values="0 0 0 0 0 0 0 0 0 0 0 0 0 0 0 0 0 0 0.25 0"/>
<feBlend mode="normal" in2="BackgroundImageFix" result="effect1_dropShadow_145_114"/>
<feBlend mode="normal" in="SourceGraphic" in2="effect1_dropShadow_145_114" result="shape"/>
</filter>
</defs>
</svg>
