<svg width="305" height="325" viewBox="0 0 305 325" fill="none" xmlns="http://www.w3.org/2000/svg">
<g filter="url(#filter0_d_145_155)">
<rect x="10" y="9" width="279" height="299" rx="5" fill="white"/>
</g>
<circle cx="149.5" cy="116.5" r="87" stroke="black"/>
<mask id="mask0_145_155" style="mask-type:alpha" maskUnits="userSpaceOnUse" x="62" y="29" width="175" height="175">
<circle cx="149.5" cy="116.5" r="87.5" fill="#D9D9D9"/>
</mask>
<g mask="url(#mask0_145_155)">
<path d="M124.176 130.562C126.325 134.541 129.408 137.95 131.608 141.901C135.032 148.044 136.167 155.24 136.104 162.273C136.087 164.196 136.003 166.209 136.839 167.942C138.632 171.658 143.544 172.328 147.667 172.507C154.235 172.792 162.721 171.748 164.346 165.378C165.011 162.769 164.186 160.042 164.015 157.356C163.491 149.082 169.158 141.737 175.217 136.08C181.277 130.422 188.253 125.272 191.797 117.777C192.715 115.835 193.363 113.496 192.364 111.595C190.202 107.478 182.809 109.15 180.524 105.099C179.839 103.884 179.813 102.426 179.654 101.04C178.229 88.6563 164.733 80.4474 152.274 80.8444C142.753 81.1484 125.279 86.1473 120.996 95.8083C117.054 104.699 119.826 122.503 124.176 130.562Z" fill="#FFE7FB"/>
<path d="M90.3514 225.225C90.2284 229.123 90.9004 233.653 94.2454 235.658C95.9264 236.666 97.9694 236.813 99.9264 236.928C135.456 239.011 171.114 238.903 206.63 236.608C207.605 236.544 208.643 236.456 209.415 235.859C211.017 234.616 210.533 232.117 209.871 230.202C206.444 220.299 202.367 210.621 197.673 201.252C194.914 195.739 191.434 189.888 185.605 187.882C177.495 185.09 169.204 190.909 160.829 192.762C144.165 196.448 130.031 178.583 114.891 183.398C99.6244 188.252 90.8054 210.828 90.3514 225.225Z" fill="#C3C62B"/>
<path d="M129.542 175.823C129.231 176.323 128.929 176.873 128.962 177.46C129.003 178.17 129.517 178.752 130.02 179.255C140.415 189.656 158.358 191.36 170.524 183.1C172.047 182.066 173.53 180.838 174.307 179.169C175.838 175.881 174.033 171.751 171.013 169.742C167.994 167.733 164.128 167.458 160.524 167.858C156.919 168.257 153.398 169.26 149.784 169.57C140.753 170.347 134.885 167.231 129.542 175.823Z" fill="#6987FF"/>
<path d="M133.771 124.622C131.339 124.646 128.909 124.67 126.478 124.694C125.779 124.7 124.987 124.749 124.539 125.286C123.988 125.946 124.314 127.021 124.989 127.554C125.663 128.087 126.559 128.223 127.412 128.34C128.507 128.491 129.603 128.642 130.699 128.793C132.243 129.006 133.995 129.162 135.185 128.156C136.376 127.151 135.929 124.601 134.375 124.719" fill="#F03FA3"/>
<path d="M167.952 125.841C165.521 125.865 163.09 125.889 160.659 125.912C159.961 125.919 159.168 125.969 158.72 126.505C158.169 127.165 158.496 128.239 159.169 128.773C159.844 129.307 160.741 129.443 161.592 129.56C162.688 129.71 163.784 129.861 164.879 130.012C166.424 130.225 168.176 130.382 169.367 129.375C170.557 128.369 170.11 125.819 168.555 125.938" fill="#F03FA3"/>
<path d="M126.896 105.963C127.709 105.281 128.661 104.874 129.629 104.576C130.604 104.289 131.62 104.152 132.637 104.149C134.659 104.147 136.772 104.677 138.361 106.058C137.3 106.16 136.364 106.11 135.418 106.142L132.641 106.149C130.789 106.131 128.963 106.177 126.896 105.963Z" fill="black"/>
<path d="M134.467 115.885C134.467 117.5 133.646 118.809 132.633 118.809C131.62 118.809 130.798 117.5 130.798 115.885C130.798 114.271 131.62 112.962 132.633 112.962C133.646 112.962 134.467 114.271 134.467 115.885Z" fill="black"/>
<path d="M166.92 105.822C164.856 106.062 163.031 106.037 161.178 106.076L158.403 106.104C157.456 106.082 156.519 106.145 155.459 106.055C157.03 104.655 159.137 104.099 161.158 104.077C162.176 104.068 163.192 104.193 164.17 104.468C165.143 104.754 166.1 105.15 166.92 105.822Z" fill="black"/>
<path d="M159.798 115.885C159.798 117.5 160.62 118.809 161.633 118.809C162.646 118.809 163.467 117.5 163.467 115.885C163.467 114.271 162.646 112.962 161.633 112.962C160.62 112.962 159.798 114.271 159.798 115.885Z" fill="black"/>
<path d="M143.547 114.229C143.663 114.481 143.233 121.184 142.069 124.448C142.069 124.448 142.069 129.117 147.443 128.137" stroke="black" stroke-miterlimit="10"/>
<path d="M140.266 135.104C140.266 135.104 148.264 135.643 154.622 134.549" stroke="black" stroke-miterlimit="10"/>
<path d="M88.5 233.009L93.53 209.879C96.18 197.689 103.63 187.089 114.2 180.458L133.75 168.198L134.33 162.019H134.34L135.65 148.099L135.68 147.799" stroke="black" stroke-miterlimit="10"/>
<path d="M206.39 233.009L201.36 209.879C198.71 197.689 191.26 187.089 180.69 180.458L161.14 168.198L159.75 153.589L159.26 148.328L159.24 148.158" stroke="black" stroke-miterlimit="10"/>
<path d="M114.73 96.6792C115.17 97.4292 114.17 126.958 131.81 144.679C135.83 148.708 140.82 152.139 147.02 154.458C147.02 154.458 152.68 153.599 159.26 148.328C160.56 147.299 161.89 146.089 163.22 144.679C170.78 136.698 178.32 122.349 179.17 96.6792" stroke="black" stroke-miterlimit="10"/>
<path d="M116.094 112.85C116.094 112.85 108.688 105.009 105.578 109.203C102.466 113.399 110.852 131.715 121.29 128.594" stroke="black" stroke-miterlimit="10"/>
<path d="M110.6 116.394C110.6 116.394 115.629 115.991 118.113 119.795" stroke="black" stroke-miterlimit="10"/>
<path d="M113.608 120.172C113.608 120.172 113.622 118.441 116.859 118.37" stroke="black" stroke-miterlimit="10"/>
<path d="M177.538 112.85C177.538 112.85 184.414 104.539 187.794 108.522C191.172 112.504 184.006 131.331 173.386 128.901" stroke="black" stroke-miterlimit="10"/>
<path d="M183.44 116.029C183.44 116.029 178.396 115.957 176.167 119.916" stroke="black" stroke-miterlimit="10"/>
<path d="M180.684 119.996C180.684 119.996 180.557 118.27 177.323 118.412" stroke="black" stroke-miterlimit="10"/>
<path d="M133.747 168.195C133.747 168.195 147.201 177.804 161.139 168.195" stroke="black" stroke-miterlimit="10"/>
<path d="M146.95 172.466L140.376 180.753C140.376 180.753 132.93 178.929 129.315 170.975" stroke="black" stroke-miterlimit="10"/>
<path d="M148.236 172.466L154.809 180.753C154.809 180.753 162.255 178.929 165.87 170.975" stroke="black" stroke-miterlimit="10"/>
<path d="M124.579 173.945C124.579 173.945 134.026 186.868 147.443 189.467C147.443 189.467 161.562 187.579 169.543 173.466" stroke="black" stroke-miterlimit="10"/>
<path d="M121.665 175.864C121.665 175.864 134.026 190.766 147.443 193.364C147.443 193.364 164.431 189.378 172.412 175.265" stroke="black" stroke-miterlimit="10"/>
<path d="M147.443 193.364V233.011" stroke="black" stroke-miterlimit="10"/>
<path d="M165.871 86.7405C165.871 86.7405 143.601 99.0945 129.316 100.04C115.032 100.986 116.759 113.996 116.759 113.996C116.759 113.996 105.6 99.5815 106.975 79.1745C108.351 58.7675 149.597 43.1745 170.133 59.9135C170.133 59.9135 198.482 72.6725 177.829 111.276C177.829 111.276 170.193 104.626 165.871 86.7405Z" fill="black"/>
<path d="M158.463 58.7264C158.601 57.1034 158.923 55.4964 159.429 53.9494C160.996 49.1584 166.002 46.6354 170.806 46.1134C172.429 45.9374 174.087 45.9404 175.676 46.3084C180.059 47.3224 183.438 51.0504 185.086 55.2364C186.21 58.0914 186.65 61.2144 186.345 64.2684C186.173 65.9904 185.758 67.7124 184.897 69.2144C184.21 70.4134 183.253 71.4454 182.177 72.3144C178.335 75.4204 172.369 76.5084 167.6 75.5184C164.423 74.8604 162.076 72.8864 160.618 70.0274C158.851 66.5624 158.133 62.5974 158.463 58.7264Z" fill="black"/>
<path d="M159.751 153.589C153.801 155.658 141.911 159.559 134.341 162.019L135.651 148.099C138.901 150.649 142.661 152.828 147.021 154.458C147.021 154.458 152.681 153.599 159.261 148.328L159.751 153.589Z" fill="black"/>
</g>
<path d="M47.8438 250.109C47.3125 250.109 46.8672 249.969 46.5078 249.688C46.2734 249.312 46.1562 248.906 46.1562 248.469C46.1562 248.078 46.3047 247.742 46.6016 247.461C46.8984 247.18 47.2422 247.039 47.6328 247.039C48.0078 247.039 48.4141 247.281 48.8516 247.766C49.2734 248.234 49.5938 248.469 49.8125 248.469C50.5156 248.469 50.9688 247.922 51.1719 246.828C51.2812 246.281 51.3594 245.594 51.4062 244.766C51.4688 243.922 51.5 242.945 51.5 241.836V232.766C51.5 231.766 51.4375 231.156 51.3125 230.938C51.2656 230.844 51.1406 230.758 50.9375 230.68C50.75 230.586 50.5547 230.508 50.3516 230.445C50.1484 230.383 49.9844 230.352 49.8594 230.352C49.7969 230.352 49.7656 230.219 49.7656 229.953C49.7656 229.672 49.7812 229.516 49.8125 229.484L53.2109 229.625C53.3672 229.641 53.7188 229.633 54.2656 229.602C54.8125 229.57 55.5547 229.531 56.4922 229.484C56.5391 229.625 56.5625 229.766 56.5625 229.906C56.5625 230.203 56.5312 230.352 56.4688 230.352C56.375 230.352 56.2109 230.383 55.9766 230.445C55.7422 230.508 55.5156 230.586 55.2969 230.68C55.0938 230.758 54.9766 230.836 54.9453 230.914C54.8359 231.305 54.7812 231.969 54.7812 232.906V241.648C54.7812 243.414 54.5 244.93 53.9375 246.195C53.375 247.461 52.5781 248.43 51.5469 249.102C50.5156 249.773 49.2812 250.109 47.8438 250.109ZM60.6406 245.164C59.7812 245.164 59.0938 244.93 58.5781 244.461C58.0781 243.977 57.8281 243.375 57.8281 242.656C57.8281 242.047 58.0156 241.516 58.3906 241.062C58.7812 240.609 59.2656 240.25 59.8438 239.984C60.0625 239.891 60.2656 239.812 60.4531 239.75C60.6406 239.672 60.8125 239.602 60.9688 239.539C61.5625 239.352 62.0391 239.219 62.3984 239.141C62.7578 239.047 63.0234 238.969 63.1953 238.906C63.3359 238.859 63.4062 238.742 63.4062 238.555V237.711C63.4062 236.43 63.0156 235.789 62.2344 235.789C61.3281 235.789 60.875 236.312 60.875 237.359C60.875 237.703 60.7344 237.961 60.4531 238.133C60.1719 238.289 59.8594 238.367 59.5156 238.367C58.7969 238.367 58.3047 238.133 58.0391 237.664C58.0391 237.258 58.1797 236.867 58.4609 236.492C58.7578 236.117 59.1406 235.781 59.6094 235.484C60.0938 235.172 60.6328 234.93 61.2266 234.758C61.8359 234.57 62.4453 234.477 63.0547 234.477C64.1484 234.477 64.9844 234.781 65.5625 235.391C66.1562 235.984 66.4531 237.07 66.4531 238.648V242.445C66.4531 242.977 66.6406 243.242 67.0156 243.242C67.2969 243.242 67.5625 243.141 67.8125 242.938C67.9219 243 67.9766 243.117 67.9766 243.289C67.9766 243.695 67.9219 243.984 67.8125 244.156C67.5938 244.359 67.2344 244.578 66.7344 244.812C66.25 245.031 65.7891 245.141 65.3516 245.141C64.9766 245.141 64.6172 245.031 64.2734 244.812C63.9297 244.578 63.7031 244.312 63.5938 244.016C63.5781 244.016 63.4922 244.07 63.3359 244.18C63.1797 244.289 63.0625 244.375 62.9844 244.438C62.6719 244.641 62.3125 244.812 61.9062 244.953C61.5 245.094 61.0781 245.164 60.6406 245.164ZM62.1172 243.477C62.5234 243.477 62.8359 243.383 63.0547 243.195C63.2891 242.992 63.4062 242.75 63.4062 242.469V240.102L62.1875 240.523C61.8594 240.633 61.5547 240.797 61.2734 241.016C61.0078 241.234 60.875 241.523 60.875 241.883C60.875 242.445 60.9922 242.852 61.2266 243.102C61.4766 243.352 61.7734 243.477 62.1172 243.477ZM69.125 245.094C69.0625 245.031 69.0312 244.867 69.0312 244.602C69.0312 244.352 69.0625 244.227 69.125 244.227C69.25 244.227 69.4219 244.195 69.6406 244.133C69.875 244.055 70.0938 243.969 70.2969 243.875C70.5156 243.781 70.6328 243.703 70.6484 243.641C70.7578 243.203 70.8125 242.609 70.8125 241.859V238.648C70.8125 237.773 70.6719 237.188 70.3906 236.891C70.2656 236.734 70.0938 236.625 69.875 236.562C69.6719 236.5 69.4922 236.461 69.3359 236.445C69.1797 236.414 69.1016 236.383 69.1016 236.352C69.1016 235.805 69.1406 235.531 69.2188 235.531C69.625 235.531 70.2031 235.445 70.9531 235.273C71.7031 235.086 72.5547 234.891 73.5078 234.688L73.625 234.664C73.6406 234.648 73.6719 234.641 73.7188 234.641L73.7656 234.617C73.8438 234.617 73.9219 234.672 74 234.781C74.0938 234.875 74.1328 234.953 74.1172 235.016L74.0234 235.742C74.0234 235.82 74.0312 235.867 74.0469 235.883C74.0781 235.883 74.1328 235.844 74.2109 235.766C75.0703 234.953 76.1562 234.547 77.4688 234.547C78.375 234.547 79.1094 234.93 79.6719 235.695C80.25 236.461 80.5391 237.625 80.5391 239.188V241.508C80.5391 242.539 80.5938 243.25 80.7031 243.641C80.7344 243.703 80.8516 243.781 81.0547 243.875C81.2578 243.969 81.4688 244.055 81.6875 244.133C81.9219 244.195 82.0859 244.227 82.1797 244.227C82.2109 244.227 82.2344 244.289 82.25 244.414C82.2656 244.539 82.2734 244.672 82.2734 244.812C82.2734 244.953 82.2578 245.047 82.2266 245.094C82.1328 245.094 81.9531 245.078 81.6875 245.047C81.4219 245.031 81.1094 245.016 80.75 245C80.4062 244.969 80.0781 244.945 79.7656 244.93C79.4531 244.914 79.2031 244.906 79.0156 244.906C78.7656 244.906 78.4141 244.922 77.9609 244.953C77.5234 244.984 77.1016 245.008 76.6953 245.023C76.2891 245.055 76.0234 245.078 75.8984 245.094C75.8359 245.031 75.8047 244.867 75.8047 244.602C75.8047 244.352 75.8359 244.227 75.8984 244.227C76.0234 244.227 76.1875 244.195 76.3906 244.133C76.6094 244.055 76.8125 243.969 77 243.875C77.2031 243.781 77.3125 243.703 77.3281 243.641C77.4375 243.203 77.4922 242.609 77.4922 241.859V239.75C77.4922 238.594 77.3281 237.773 77 237.289C76.6875 236.789 76.1797 236.539 75.4766 236.539C74.9922 236.539 74.6016 236.633 74.3047 236.82C74.0078 236.992 73.8594 237.242 73.8594 237.57V241.508C73.8594 242.539 73.9141 243.25 74.0234 243.641C74.0547 243.703 74.1641 243.781 74.3516 243.875C74.5391 243.969 74.7422 244.055 74.9609 244.133C75.1797 244.195 75.3281 244.227 75.4062 244.227C75.4375 244.227 75.4609 244.289 75.4766 244.414C75.4922 244.539 75.5 244.672 75.5 244.812C75.5 244.953 75.4844 245.047 75.4531 245.094C75.3281 245.078 75.0625 245.055 74.6562 245.023C74.25 245.008 73.8203 244.984 73.3672 244.953C72.9297 244.922 72.5859 244.906 72.3359 244.906C72.1484 244.906 71.8906 244.914 71.5625 244.93C71.25 244.945 70.9219 244.969 70.5781 245C70.2344 245.016 69.9297 245.031 69.6641 245.047C69.3984 245.078 69.2188 245.094 69.125 245.094ZM88.3672 245.164C87.4141 245.164 86.5312 244.922 85.7188 244.438C84.9219 243.953 84.2812 243.305 83.7969 242.492C83.3281 241.68 83.0938 240.789 83.0938 239.82C83.0938 238.82 83.3047 237.922 83.7266 237.125C84.1641 236.328 84.7656 235.695 85.5312 235.227C86.2969 234.758 87.1797 234.523 88.1797 234.523C89.1641 234.523 90 234.758 90.6875 235.227C91.3906 235.68 91.9219 236.25 92.2812 236.938C92.6562 237.609 92.8438 238.289 92.8438 238.977C92.8438 239.336 92.7656 239.57 92.6094 239.68C92.4688 239.789 92.1797 239.844 91.7422 239.844H86.4453C86.3516 239.844 86.3047 239.898 86.3047 240.008C86.3047 240.57 86.4062 241.102 86.6094 241.602C86.8281 242.102 87.1406 242.508 87.5469 242.82C87.9688 243.133 88.4766 243.289 89.0703 243.289C89.6016 243.289 90.0938 243.211 90.5469 243.055C90.8594 242.961 91.1016 242.875 91.2734 242.797C91.4453 242.719 91.6016 242.633 91.7422 242.539C91.8984 242.43 92.0781 242.297 92.2812 242.141C92.4219 242.203 92.4922 242.352 92.4922 242.586C92.4922 242.789 92.4609 242.945 92.3984 243.055C92.3047 243.305 92.0547 243.594 91.6484 243.922C91.2578 244.25 90.7734 244.539 90.1953 244.789C89.6328 245.039 89.0234 245.164 88.3672 245.164ZM86.4688 238.555H89.4453C89.6641 238.555 89.7734 238.406 89.7734 238.109C89.7734 237.516 89.6094 236.984 89.2812 236.516C88.9688 236.047 88.5625 235.812 88.0625 235.812C87.6094 235.812 87.25 235.977 86.9844 236.305C86.7344 236.617 86.5547 236.969 86.4453 237.359C86.3516 237.75 86.3047 238.07 86.3047 238.32C86.3047 238.477 86.3594 238.555 86.4688 238.555ZM98.75 245.164C97.8906 245.164 97.1484 244.898 96.5234 244.367C95.9141 243.82 95.6094 242.945 95.6094 241.742V236.328H94.0859C93.9609 236.328 93.8984 236.086 93.8984 235.602C93.8984 235.492 93.9141 235.406 93.9453 235.344C94.3828 235.125 94.7734 234.914 95.1172 234.711C95.4766 234.492 95.7891 234.281 96.0547 234.078C96.7422 233.531 97.2422 233.117 97.5547 232.836C97.8672 232.555 98.0312 232.406 98.0469 232.391C98.1719 232.391 98.3047 232.422 98.4453 232.484C98.5859 232.531 98.6562 232.586 98.6562 232.648V234.945H101.188C101.312 234.945 101.375 235.023 101.375 235.18C101.375 235.648 101.297 236.031 101.141 236.328H98.6562V241.883C98.6562 243.07 99.0781 243.664 99.9219 243.664C100.359 243.664 100.664 243.609 100.836 243.5C101.023 243.375 101.148 243.312 101.211 243.312C101.273 243.312 101.336 243.391 101.398 243.547C101.477 243.703 101.516 243.82 101.516 243.898C101.516 244.023 101.359 244.188 101.047 244.391C100.75 244.594 100.383 244.773 99.9453 244.93C99.5234 245.086 99.125 245.164 98.75 245.164ZM107.727 245.094C107.664 245.031 107.633 244.898 107.633 244.695C107.633 244.383 107.664 244.227 107.727 244.227C107.852 244.227 108.031 244.203 108.266 244.156C108.5 244.109 108.719 244.047 108.922 243.969C109.125 243.875 109.242 243.789 109.273 243.711C109.367 243.352 109.414 242.664 109.414 241.648V232.789C109.414 231.914 109.367 231.305 109.273 230.961C109.242 230.867 109.117 230.773 108.898 230.68C108.695 230.57 108.477 230.484 108.242 230.422C108.008 230.344 107.828 230.305 107.703 230.305C107.641 230.305 107.609 230.164 107.609 229.883C107.609 229.633 107.633 229.484 107.68 229.438C108.305 229.469 108.898 229.5 109.461 229.531C110.039 229.547 110.594 229.555 111.125 229.555L114.664 229.508C115.242 229.508 115.828 229.586 116.422 229.742C117.016 229.883 117.594 230.109 118.156 230.422C118.703 230.734 119.148 231.172 119.492 231.734C119.836 232.297 120.008 232.945 120.008 233.68C120.008 234.211 119.891 234.688 119.656 235.109C119.438 235.531 119.18 235.883 118.883 236.164C118.586 236.43 118.312 236.609 118.062 236.703C117.938 236.75 117.898 236.797 117.945 236.844C118.32 236.906 118.703 237.102 119.094 237.43C119.5 237.758 119.844 238.195 120.125 238.742C120.406 239.273 120.547 239.898 120.547 240.617C120.547 241.508 120.297 242.289 119.797 242.961C119.297 243.633 118.602 244.148 117.711 244.508C116.82 244.852 115.781 245.016 114.594 245L111.148 244.953C110.68 244.953 110.156 244.969 109.578 245C109.016 245.016 108.562 245.031 108.219 245.047L107.727 245.094ZM113.914 236.305C114.523 236.305 114.969 236.234 115.25 236.094C115.5 235.969 115.68 235.852 115.789 235.742C115.914 235.633 116.047 235.406 116.188 235.062C116.344 234.703 116.422 234.25 116.422 233.703C116.422 231.766 115.703 230.797 114.266 230.797C113.547 230.797 113.094 230.828 112.906 230.891C112.766 230.906 112.695 231 112.695 231.172V235.977C112.695 236.195 113.102 236.305 113.914 236.305ZM114.617 243.711C116.227 243.711 117.031 242.766 117.031 240.875C117.031 238.703 116.07 237.617 114.148 237.617C113.664 237.617 113.266 237.656 112.953 237.734C112.781 237.812 112.695 237.883 112.695 237.945V243.219C112.695 243.375 112.75 243.484 112.859 243.547C113.016 243.656 113.602 243.711 114.617 243.711ZM121.906 245.094C121.844 245.031 121.812 244.867 121.812 244.602C121.812 244.352 121.844 244.227 121.906 244.227C122.031 244.227 122.211 244.195 122.445 244.133C122.68 244.055 122.898 243.969 123.102 243.875C123.305 243.781 123.414 243.703 123.43 243.641C123.539 243.203 123.594 242.609 123.594 241.859V238.648C123.594 237.773 123.453 237.188 123.172 236.891C123.047 236.734 122.875 236.625 122.656 236.562C122.453 236.5 122.273 236.461 122.117 236.445C121.961 236.414 121.883 236.383 121.883 236.352C121.883 235.805 121.922 235.531 122 235.531C122.406 235.531 122.969 235.445 123.688 235.273C124.422 235.086 125.195 234.906 126.008 234.734L126.547 234.617C126.625 234.617 126.703 234.672 126.781 234.781C126.859 234.875 126.898 234.953 126.898 235.016C126.883 235.109 126.859 235.297 126.828 235.578C126.812 235.859 126.797 236.016 126.781 236.047C127.562 235.031 128.445 234.523 129.43 234.523C130.133 234.523 130.805 234.812 131.445 235.391C131.445 236.203 131.344 236.805 131.141 237.195C130.953 237.586 130.602 237.781 130.086 237.781C129.773 237.781 129.414 237.602 129.008 237.242C128.602 236.883 128.242 236.703 127.93 236.703C127.617 236.703 127.367 236.828 127.18 237.078C126.992 237.312 126.852 237.617 126.758 237.992C126.68 238.367 126.641 238.758 126.641 239.164V241.531C126.641 242.547 126.695 243.25 126.805 243.641C126.836 243.703 126.945 243.781 127.133 243.875C127.32 243.969 127.523 244.055 127.742 244.133C127.961 244.195 128.109 244.227 128.188 244.227C128.219 244.227 128.242 244.289 128.258 244.414C128.273 244.539 128.281 244.672 128.281 244.812C128.281 244.953 128.266 245.047 128.234 245.094C128.109 245.078 127.844 245.055 127.438 245.023C127.031 245.008 126.602 244.984 126.148 244.953C125.711 244.922 125.367 244.906 125.117 244.906C124.93 244.906 124.672 244.914 124.344 244.93C124.031 244.945 123.703 244.969 123.359 245C123.016 245.016 122.711 245.031 122.445 245.047C122.18 245.078 122 245.094 121.906 245.094ZM135.547 245.164C134.688 245.164 134 244.93 133.484 244.461C132.984 243.977 132.734 243.375 132.734 242.656C132.734 242.047 132.922 241.516 133.297 241.062C133.688 240.609 134.172 240.25 134.75 239.984C134.969 239.891 135.172 239.812 135.359 239.75C135.547 239.672 135.719 239.602 135.875 239.539C136.469 239.352 136.945 239.219 137.305 239.141C137.664 239.047 137.93 238.969 138.102 238.906C138.242 238.859 138.312 238.742 138.312 238.555V237.711C138.312 236.43 137.922 235.789 137.141 235.789C136.234 235.789 135.781 236.312 135.781 237.359C135.781 237.703 135.641 237.961 135.359 238.133C135.078 238.289 134.766 238.367 134.422 238.367C133.703 238.367 133.211 238.133 132.945 237.664C132.945 237.258 133.086 236.867 133.367 236.492C133.664 236.117 134.047 235.781 134.516 235.484C135 235.172 135.539 234.93 136.133 234.758C136.742 234.57 137.352 234.477 137.961 234.477C139.055 234.477 139.891 234.781 140.469 235.391C141.062 235.984 141.359 237.07 141.359 238.648V242.445C141.359 242.977 141.547 243.242 141.922 243.242C142.203 243.242 142.469 243.141 142.719 242.938C142.828 243 142.883 243.117 142.883 243.289C142.883 243.695 142.828 243.984 142.719 244.156C142.5 244.359 142.141 244.578 141.641 244.812C141.156 245.031 140.695 245.141 140.258 245.141C139.883 245.141 139.523 245.031 139.18 244.812C138.836 244.578 138.609 244.312 138.5 244.016C138.484 244.016 138.398 244.07 138.242 244.18C138.086 244.289 137.969 244.375 137.891 244.438C137.578 244.641 137.219 244.812 136.812 244.953C136.406 245.094 135.984 245.164 135.547 245.164ZM137.023 243.477C137.43 243.477 137.742 243.383 137.961 243.195C138.195 242.992 138.312 242.75 138.312 242.469V240.102L137.094 240.523C136.766 240.633 136.461 240.797 136.18 241.016C135.914 241.234 135.781 241.523 135.781 241.883C135.781 242.445 135.898 242.852 136.133 243.102C136.383 243.352 136.68 243.477 137.023 243.477ZM144.547 250.109C144.078 250.109 143.695 249.984 143.398 249.734C143.117 249.484 142.977 249.195 142.977 248.867C142.977 248.398 143.156 248.031 143.516 247.766C145.516 247.766 146.805 247.156 147.383 245.938L148.109 244.391L144.5 236.375C144.344 236.031 144.102 235.797 143.773 235.672C143.461 235.547 143.188 235.484 142.953 235.484C142.891 235.484 142.859 235.367 142.859 235.133C142.859 234.82 142.875 234.648 142.906 234.617C142.969 234.617 143.117 234.625 143.352 234.641C143.602 234.656 143.945 234.68 144.383 234.711C144.82 234.742 145.188 234.766 145.484 234.781C145.797 234.797 146.047 234.805 146.234 234.805C146.469 234.805 146.805 234.789 147.242 234.758C147.68 234.727 148.102 234.695 148.508 234.664C148.93 234.633 149.195 234.617 149.305 234.617C149.352 234.758 149.375 234.922 149.375 235.109C149.375 235.359 149.344 235.484 149.281 235.484C149.156 235.484 148.977 235.516 148.742 235.578C148.508 235.641 148.297 235.719 148.109 235.812C147.922 235.891 147.828 235.984 147.828 236.094C147.859 236.328 148.023 236.836 148.32 237.617C148.633 238.398 149.086 239.484 149.68 240.875C150.211 239.719 150.617 238.828 150.898 238.203C151.195 237.562 151.367 237.188 151.414 237.078C151.508 236.859 151.555 236.625 151.555 236.375C151.555 236.172 151.406 235.977 151.109 235.789C150.812 235.586 150.406 235.484 149.891 235.484C149.828 235.484 149.797 235.344 149.797 235.062C149.797 234.953 149.797 234.867 149.797 234.805C149.812 234.727 149.828 234.664 149.844 234.617C149.969 234.617 150.227 234.633 150.617 234.664C151.023 234.695 151.445 234.727 151.883 234.758C152.32 234.789 152.664 234.805 152.914 234.805C153.086 234.805 153.281 234.797 153.5 234.781C153.719 234.75 153.961 234.727 154.227 234.711L155.422 234.617C155.484 234.727 155.516 234.859 155.516 235.016C155.516 235.328 155.484 235.484 155.422 235.484C155.266 235.484 155.047 235.523 154.766 235.602C154.5 235.664 154.234 235.766 153.969 235.906C153.719 236.031 153.547 236.203 153.453 236.422L149.094 245.867C147.781 248.695 146.266 250.109 144.547 250.109Z" fill="#212529"/>
<path d="M53.315 275.1C54.865 275.1 56.08 275.53 56.96 276.39C57.85 277.24 58.295 278.46 58.295 280.05C58.295 281.64 57.85 282.865 56.96 283.725C56.08 284.575 54.865 285 53.315 285H50.12V275.1H53.315ZM53.435 283.875C54.565 283.875 55.445 283.54 56.075 282.87C56.715 282.19 57.035 281.25 57.035 280.05C57.035 278.85 56.715 277.915 56.075 277.245C55.445 276.565 54.565 276.225 53.435 276.225H51.32V283.875H53.435ZM60.9305 285V275.1H67.8755V276.225H62.1305V279.42H66.6005V280.545H62.1305V283.875H68.1005V285H60.9305ZM78.176 275.1L74.426 285H73.061L69.296 275.1H70.586L73.106 281.94L73.736 283.905L74.366 281.955L76.886 275.1H78.176ZM80.2225 285V275.1H87.1675V276.225H81.4225V279.42H85.8925V280.545H81.4225V283.875H87.3925V285H80.2225ZM90.988 283.875H96.658V285H89.788V275.1H90.988V283.875ZM102.391 274.95C103.331 274.95 104.141 275.16 104.821 275.58C105.511 275.99 106.041 276.575 106.411 277.335C106.791 278.095 106.981 279 106.981 280.05C106.981 281.1 106.791 282.005 106.411 282.765C106.041 283.525 105.511 284.115 104.821 284.535C104.141 284.945 103.331 285.15 102.391 285.15C101.451 285.15 100.636 284.945 99.9463 284.535C99.2663 284.115 98.7363 283.525 98.3563 282.765C97.9863 282.005 97.8013 281.1 97.8013 280.05C97.8013 279 97.9863 278.095 98.3563 277.335C98.7363 276.575 99.2663 275.99 99.9463 275.58C100.636 275.16 101.451 274.95 102.391 274.95ZM102.391 276.075C101.711 276.075 101.121 276.235 100.621 276.555C100.121 276.865 99.7363 277.32 99.4663 277.92C99.1963 278.51 99.0613 279.22 99.0613 280.05C99.0613 280.88 99.1963 281.595 99.4663 282.195C99.7363 282.785 100.121 283.24 100.621 283.56C101.121 283.87 101.711 284.025 102.391 284.025C103.081 284.025 103.671 283.87 104.161 283.56C104.661 283.24 105.046 282.785 105.316 282.195C105.586 281.595 105.721 280.88 105.721 280.05C105.721 279.22 105.586 278.51 105.316 277.92C105.046 277.32 104.661 276.865 104.161 276.555C103.671 276.235 103.081 276.075 102.391 276.075ZM113.117 275.1C113.787 275.1 114.367 275.225 114.857 275.475C115.357 275.715 115.747 276.06 116.027 276.51C116.307 276.96 116.447 277.495 116.447 278.115C116.447 278.735 116.307 279.27 116.027 279.72C115.747 280.17 115.357 280.52 114.857 280.77C114.367 281.01 113.787 281.13 113.117 281.13H110.822V285H109.622V275.1H113.117ZM112.937 280.005C113.717 280.005 114.287 279.845 114.647 279.525C115.007 279.195 115.187 278.725 115.187 278.115C115.187 277.495 115.007 277.025 114.647 276.705C114.287 276.385 113.717 276.225 112.937 276.225H110.822V280.005H112.937ZM118.777 285V275.1H125.722V276.225H119.977V279.42H124.447V280.545H119.977V283.875H125.947V285H118.777ZM132.093 275.1C133.103 275.1 133.913 275.36 134.523 275.88C135.133 276.4 135.438 277.105 135.438 277.995C135.438 278.885 135.128 279.58 134.508 280.08C133.898 280.57 133.088 280.815 132.078 280.815L131.973 280.89H129.543V285H128.343V275.1H132.093ZM132.078 279.765C132.788 279.765 133.313 279.62 133.653 279.33C134.003 279.03 134.178 278.585 134.178 277.995C134.178 277.405 134.003 276.965 133.653 276.675C133.313 276.375 132.788 276.225 132.078 276.225H129.543V279.765H132.078ZM132.768 280.005L136.038 285H134.613L131.763 280.665L132.768 280.005Z" fill="#212529" fill-opacity="0.75"/>
<defs>
<filter id="filter0_d_145_155" x="0" y="0" width="305" height="325" filterUnits="userSpaceOnUse" color-interpolation-filters="sRGB">
<feFlood flood-opacity="0" result="BackgroundImageFix"/>
<feColorMatrix in="SourceAlpha" type="matrix" values="0 0 0 0 0 0 0 0 0 0 0 0 0 0 0 0 0 0 127 0" result="hardAlpha"/>
<feMorphology radius="1" operator="dilate" in="SourceAlpha" result="effect1_dropShadow_145_155"/>
<feOffset dx="3" dy="4"/>
<feGaussianBlur stdDeviation="6"/>
<feComposite in2="hardAlpha" operator="out"/>
<feColorMatrix type="matrix" values="0 0 0 0 0 0 0 0 0 0 0 0 0 0 0 0 0 0 0.25 0"/>
<feBlend mode="normal" in2="BackgroundImageFix" result="effect1_dropShadow_145_155"/>
<feBlend mode="normal" in="SourceGraphic" in2="effect1_dropShadow_145_155" result="shape"/>
</filter>
</defs>
</svg>
