<svg width="305" height="325" viewBox="0 0 305 325" fill="none" xmlns="http://www.w3.org/2000/svg">
<g filter="url(#filter0_d_145_68)">
<rect x="10" y="9" width="279" height="299" rx="5" fill="white"/>
</g>
<circle cx="149.5" cy="116.5" r="87" stroke="black"/>
<mask id="mask0_145_68" style="mask-type:alpha" maskUnits="userSpaceOnUse" x="62" y="29" width="175" height="175">
<circle cx="149.5" cy="116.5" r="87.5" fill="#D9D9D9"/>
</mask>
<g mask="url(#mask0_145_68)">
<path d="M110.35 126.697C113.169 131.47 117.102 135.475 120.386 139.941C125.927 147.475 129.601 156.369 130.996 165.616C131.947 171.912 132.344 179.272 137.546 182.943C140.171 184.796 143.517 185.251 146.726 185.435C150.262 185.639 154.172 185.449 156.782 183.054C160.139 179.973 159.913 174.753 160.193 170.205C160.899 158.732 166.345 148.185 170.297 137.389C175.504 123.167 178.202 108.029 178.232 92.8831C178.244 86.7606 177.609 80.1056 173.455 75.6072C169.986 71.8502 164.731 70.361 159.686 69.5244C145.534 67.1771 125.796 69.3337 118.721 83.6774C112.926 95.4296 103.327 114.8 110.35 126.697Z" fill="#FFE7FB"/>
<path d="M102.585 214.001C106.078 201.864 115.355 190.526 127.812 188.447C130.613 187.98 133.584 188.009 136.177 189.168C137.924 189.949 139.41 191.2 141.013 192.245C144.921 194.79 149.612 196.112 154.274 195.981C160.652 195.804 166.923 192.996 173.229 193.974C181.373 195.238 187.257 202.448 191.005 209.788C197.697 222.901 200.147 238.137 197.903 252.687C197.642 254.358 127.425 252.351 120.841 252.312C112.32 252.262 104.763 253.003 101.365 244.012C98.1195 235.427 100.157 222.438 102.585 214.001Z" fill="#C3C62B"/>
<path d="M184.359 112.924C181.506 118.775 180.441 125.483 181.339 131.931C185.624 133.243 190.077 130.657 193.584 127.868C195.883 126.038 198.128 123.996 199.41 121.352C200.695 118.708 200.83 115.327 199.059 112.982C197.431 110.827 194.525 109.957 191.827 110.112C189.131 110.267 186.572 111.295 184.068 112.308" fill="#FFE7FB"/>
<path d="M150.491 131.752C150.83 131.832 149.661 136.182 144.748 136.1C139.835 136.019 136.232 137.983 136.314 146.582L134.16 145.27C134.16 145.27 129.622 126.831 150.491 131.752Z" fill="black"/>
<path d="M150.601 131.752C150.26 131.832 151.43 136.182 156.343 136.1C161.256 136.019 164.859 137.983 164.777 146.582L166.932 145.27C166.932 145.27 171.469 126.831 150.601 131.752Z" fill="black"/>
<path d="M116.568 95.7737C116.568 95.7737 116.375 107.975 118.85 121.849C121.078 134.341 125.46 148.182 134.084 155.681C138.08 159.151 142.976 161.262 148.986 161.272C153.764 161.272 157.888 160.352 161.445 158.713C162.249 158.347 163.02 157.941 163.759 157.501C164.006 157.363 164.252 157.212 164.488 157.051C164.98 156.752 165.452 156.43 165.912 156.088C166.105 155.949 166.287 155.81 166.48 155.669C166.748 155.456 167.016 155.252 167.273 155.028C167.702 154.674 168.119 154.309 168.526 153.924C168.976 153.505 169.426 153.067 169.855 152.606C170.198 152.242 170.54 151.855 170.873 151.471C170.905 151.439 170.937 151.396 170.969 151.363C171.269 151.01 171.558 150.645 171.837 150.282C171.88 150.239 171.922 150.185 171.955 150.142C177.782 142.558 180.718 132.187 182.132 122.523C182.143 122.492 182.143 122.48 182.143 122.48C184.21 108.35 183.053 95.7737 183.053 95.7737" stroke="black" stroke-miterlimit="10"/>
<path d="M137.608 158.08L137.598 158.22L136.441 170.411L135.477 180.598L120.35 190.081L114.532 193.734C113.9 194.13 113.279 194.537 112.668 194.966C102.33 202.111 95.0669 212.931 92.3887 225.261L87 250.041" stroke="black" stroke-miterlimit="10"/>
<path d="M161.445 158.713L161.767 162.109L163.524 180.598L180.461 191.226L184.468 193.734C185.732 194.525 186.964 195.372 188.142 196.283C197.516 203.397 204.094 213.66 206.611 225.261L212 250.041" stroke="black" stroke-miterlimit="10"/>
<path d="M117.596 114.781C117.596 114.781 110.062 104.182 105.647 108.671C101.233 113.161 108.187 136.432 121.17 134.448" stroke="black" stroke-miterlimit="10"/>
<path d="M183.071 114.479C183.071 114.479 190.246 103.633 194.808 107.972C199.371 112.31 193.201 135.802 180.159 134.255" stroke="black" stroke-miterlimit="10"/>
<path d="M110.443 118.094C110.443 118.094 116.514 118.454 118.846 123.411" stroke="black" stroke-miterlimit="10"/>
<path d="M113.406 123.108C113.406 123.108 113.712 121.044 117.588 121.5" stroke="black" stroke-miterlimit="10"/>
<path d="M190.471 117.553C190.471 117.553 184.415 118.116 182.251 123.148" stroke="black" stroke-miterlimit="10"/>
<path d="M187.678 122.663C187.678 122.663 187.304 120.61 183.444 121.197" stroke="black" stroke-miterlimit="10"/>
<path d="M182.251 116.404C182.251 116.404 178.484 114.766 178.484 110.835C178.484 106.905 180.449 99.8629 177.829 95.7684C175.21 91.6749 171.442 87.9082 171.442 87.9082C171.442 87.9082 148.679 82.3407 122.804 91.0193C122.804 91.0193 118.998 94.5075 120.019 101.276C122.476 117.553 117.842 116.466 117.842 116.466C117.842 116.466 110.443 105.758 112.746 95.1963C112.746 95.1963 98.8611 81.9582 109.457 61.296C121.171 38.4504 161.559 40.1463 175.317 55.2838C186.362 67.4378 182.251 75.4618 182.251 75.4618C182.251 75.4618 197.975 89.5463 182.251 116.404Z" fill="black"/>
<path d="M129.116 85.1227C127.047 82.6126 125.465 79.7137 124.232 76.6851C123 73.649 122.251 70.4094 121.985 67.1301C121.805 65.49 121.925 63.8402 121.977 62.1957C122.257 60.5727 122.359 58.9164 122.909 57.3566C123.158 56.5735 123.314 55.7636 123.639 55.0105L124.596 52.75C124.89 51.9862 125.347 51.3016 125.759 50.5999C126.173 49.8982 126.598 49.2061 127.028 48.5205C125.659 51.4623 124.298 54.3955 123.708 57.5548C123.289 59.0986 123.201 60.7012 122.988 62.276C122.972 63.8691 122.859 65.461 123.052 67.0476C123.285 70.223 123.977 73.363 125 76.399C125.529 77.9117 126.118 79.4083 126.822 80.8567C127.473 82.333 128.267 83.7396 129.116 85.1227Z" fill="white"/>
<path d="M136.482 44.8914C135.363 46.7244 134.657 48.7363 134.049 50.7492C133.472 52.7772 133.084 54.8523 132.835 56.9446L132.661 58.5162L132.568 60.0974C132.462 61.1516 132.517 62.2111 132.47 63.2717C132.462 64.3323 132.519 65.394 132.522 66.461C132.561 67.5269 132.655 68.5907 132.67 69.6696C132.414 68.6272 132.217 67.5709 132 66.5135C131.87 65.4465 131.7 64.3784 131.634 63.3006C131.498 61.1473 131.505 58.9726 131.771 56.8171C132.048 54.667 132.497 52.5276 133.257 50.4889C134.016 48.462 135.024 46.4844 136.482 44.8914Z" fill="white"/>
<path d="M135.126 57.2811C134.995 56.1209 135.041 54.9585 135.164 53.8058C135.281 52.652 135.513 51.51 135.834 50.3883C136.173 49.272 136.581 48.1643 137.193 47.1498C137.789 46.1396 138.551 45.1743 139.553 44.5615C138.86 45.5011 138.375 46.4984 137.941 47.5226C137.514 48.5478 137.17 49.6116 136.862 50.6883C136.214 52.8384 135.748 55.0442 135.126 57.2811Z" fill="white"/>
<path d="M149.058 57.281C148.973 59.6068 148.821 61.9058 148.856 64.2038C148.894 66.4996 149.008 68.7868 149.311 71.0505C149.615 73.3131 150.124 75.535 150.785 77.7193C151.164 78.7928 151.524 79.8823 152.042 80.9043C152.444 81.9917 153.104 82.9334 153.62 83.9843C152.115 82.2145 150.894 80.1812 150.009 78C149.141 75.8146 148.585 73.5145 148.248 71.1919C147.966 68.8618 147.877 66.5124 148.036 64.1823C148.106 63.0168 148.236 61.8565 148.396 60.7038C148.584 59.5532 148.808 58.4134 149.058 57.281Z" fill="white"/>
<path d="M144.346 86.5541C144.346 86.5541 135.25 89.4638 138.32 95.7684C138.32 95.7684 131.456 85.1593 144.346 86.5541Z" fill="black"/>
<path d="M125.751 104.755C126.302 104.048 126.915 103.558 127.537 103.083L129.403 103.158C130.645 103.231 131.884 103.372 133.12 103.583C134.357 103.79 135.586 104.106 136.802 104.493C137.406 104.702 138.011 104.913 138.603 105.183C139.008 105.866 139.345 106.618 139.554 107.443C138.703 107.737 138.02 107.877 137.315 108.129C136.827 107.903 136.311 107.724 135.795 107.545C134.749 107.214 133.675 106.933 132.569 106.75C131.466 106.562 130.345 106.433 129.217 106.367C128.652 106.343 128.088 106.299 127.525 106.329C126.96 105.846 126.385 105.385 125.751 104.755Z" fill="black"/>
<path d="M134.161 113.998C134.161 115.727 133.281 117.129 132.195 117.129C131.11 117.129 130.23 115.727 130.23 113.998C130.23 112.268 131.11 110.865 132.195 110.865C133.281 110.865 134.161 112.268 134.161 113.998Z" fill="black"/>
<path d="M172.618 103.957C171.995 104.59 171.452 105.073 170.925 105.576C170.379 105.569 169.833 105.641 169.288 105.699C168.198 105.832 167.118 106.055 166.067 106.356C165.014 106.649 163.989 107.03 163.015 107.503C162.52 107.726 162.049 107.991 161.584 108.264C160.859 108.103 160.157 108.048 159.283 107.846C159.399 107.006 159.634 106.227 159.944 105.5C160.495 105.176 161.054 104.866 161.633 104.602C162.779 104.046 163.973 103.604 165.19 103.264C166.405 102.917 167.642 102.662 168.892 102.51C169.517 102.427 170.146 102.394 170.777 102.333C171.428 102.784 172.066 103.253 172.618 103.957Z" fill="black"/>
<path d="M164.511 113.998C164.511 115.727 165.391 117.129 166.476 117.129C167.562 117.129 168.442 115.727 168.442 113.998C168.442 112.268 167.562 110.865 166.476 110.865C165.391 110.865 164.511 112.268 164.511 113.998Z" fill="black"/>
<path d="M146.827 112.59C146.95 113.081 147.196 120.51 143.635 128.802C143.635 128.802 147.388 131.307 151.933 128.524" stroke="black" stroke-miterlimit="10"/>
<path d="M142.232 138.714C142.232 138.714 150.499 140.494 159.284 139.192" stroke="black" stroke-miterlimit="10"/>
<path d="M146.929 142.472C146.929 142.472 151.599 143.25 154.052 141.94" stroke="black" stroke-miterlimit="10"/>
<path d="M182.132 122.523C180.718 132.188 177.783 142.558 171.955 150.143C169.159 153.764 165.709 156.753 161.446 158.713C157.889 160.352 153.764 161.273 148.986 161.273C142.976 161.263 138.08 159.151 134.084 155.681C125.46 148.182 121.079 134.341 118.85 121.85C118.85 121.85 124.561 135.487 128.621 140.147C132.67 144.818 136.677 148.417 150.947 148.664C165.217 148.417 169.234 144.818 173.283 140.147C177.204 135.637 181.843 123.284 182.132 122.523Z" fill="black"/>
<path d="M135.474 180.599L151.933 198.123L163.527 180.599" stroke="black" stroke-miterlimit="10"/>
<path d="M129.239 184.51L136.887 200.251L147.389 193.284" stroke="black" stroke-miterlimit="10"/>
<path d="M156.3 191.522L165.219 200.251L172.845 186.443" stroke="black" stroke-miterlimit="10"/>
<path d="M151.933 198.123H156.3C156.3 198.123 157.194 206.147 152.772 207.621L151.933 250.036" stroke="black" stroke-miterlimit="10"/>
<path d="M123.938 250.042H115.422L112.668 194.966C113.279 194.537 113.9 194.13 114.532 193.734L120.35 190.081L123.938 250.042Z" fill="black"/>
<path d="M188.142 196.283L185.463 250.041H176.947L180.46 191.227L184.467 193.734C185.731 194.525 186.963 195.372 188.142 196.283Z" fill="black"/>
<path d="M161.767 162.109C152.897 165.076 141.166 168.89 136.441 170.411L137.598 158.22C140.866 160.159 144.637 161.262 148.986 161.272C153.764 161.272 157.889 160.352 161.446 158.713L161.767 162.109Z" fill="black"/>
</g>
<path d="M63.4531 245.164C62.6875 245.164 61.9844 245.094 61.3438 244.953C60.7188 244.797 60.2188 244.625 59.8438 244.438C59.4531 244.25 59.0703 243.969 58.6953 243.594C58.5078 243.406 58.3359 243.227 58.1797 243.055C58.0234 242.883 57.8516 242.672 57.6641 242.422C57.4922 242.156 57.2656 241.812 56.9844 241.391C56.7031 240.953 56.3359 240.375 55.8828 239.656C55.2734 238.734 54.8672 238.234 54.6641 238.156C54.6328 238.141 54.5469 238.133 54.4062 238.133C54.2656 238.133 54.1953 238.258 54.1953 238.508V241.695C54.1953 242.523 54.25 243.164 54.3594 243.617C54.3906 243.742 54.5234 243.852 54.7578 243.945C54.9922 244.039 55.25 244.109 55.5312 244.156C55.8125 244.203 56.0312 244.227 56.1875 244.227C56.25 244.227 56.2812 244.375 56.2812 244.672C56.2812 244.828 56.2656 244.969 56.2344 245.094C55.2969 245.047 54.5312 245.008 53.9375 244.977C53.3438 244.945 52.9141 244.938 52.6484 244.953L49.2266 245.094C49.1641 245.031 49.1328 244.898 49.1328 244.695C49.1328 244.383 49.1641 244.227 49.2266 244.227C49.3516 244.227 49.5312 244.203 49.7656 244.156C50 244.109 50.2188 244.047 50.4219 243.969C50.625 243.875 50.7422 243.789 50.7734 243.711C50.8672 243.352 50.9141 242.664 50.9141 241.648V232.789C50.9141 231.914 50.8672 231.305 50.7734 230.961C50.7422 230.867 50.6172 230.773 50.3984 230.68C50.1953 230.57 49.9766 230.484 49.7422 230.422C49.5078 230.344 49.3281 230.305 49.2031 230.305C49.1406 230.305 49.1094 230.164 49.1094 229.883C49.1094 229.633 49.1328 229.484 49.1797 229.438C49.8984 229.469 50.5391 229.5 51.1016 229.531C51.6797 229.547 52.1875 229.555 52.625 229.555C53.375 229.539 53.9609 229.531 54.3828 229.531C54.8047 229.531 55.125 229.531 55.3438 229.531C55.5625 229.531 55.75 229.531 55.9062 229.531C56.5312 229.531 57.1562 229.609 57.7812 229.766C58.4219 229.922 59.0078 230.164 59.5391 230.492C60.0703 230.805 60.4922 231.211 60.8047 231.711C61.1328 232.195 61.2969 232.781 61.2969 233.469C61.2969 234.156 61.1562 234.797 60.875 235.391C60.5938 235.984 60.2266 236.484 59.7734 236.891C59.3359 237.297 58.8828 237.578 58.4141 237.734C58.2891 237.781 58.2656 237.867 58.3438 237.992C58.6875 238.57 58.9531 239.008 59.1406 239.305C59.3281 239.602 59.4844 239.844 59.6094 240.031C59.75 240.203 59.9141 240.422 60.1016 240.688C60.2891 240.938 60.5547 241.32 60.8984 241.836C61.1641 242.211 61.4766 242.586 61.8359 242.961C62.2109 243.32 62.6094 243.625 63.0312 243.875C63.4688 244.109 63.8828 244.227 64.2734 244.227C64.3359 244.289 64.3672 244.43 64.3672 244.648C64.3672 244.836 64.3359 244.992 64.2734 245.117C64.1641 245.133 64.0391 245.141 63.8984 245.141C63.7734 245.156 63.625 245.164 63.4531 245.164ZM55.1797 236.844H55.8125C56.4219 236.844 56.8906 236.578 57.2188 236.047C57.5625 235.516 57.7344 234.812 57.7344 233.938C57.7344 231.859 57.0078 230.82 55.5547 230.82C55.0078 230.82 54.6484 230.883 54.4766 231.008C54.2891 231.148 54.1953 231.914 54.1953 233.305V235.836C54.1953 236.273 54.2812 236.555 54.4531 236.68C54.6406 236.789 54.8828 236.844 55.1797 236.844ZM65.2344 245.094C65.1719 245.031 65.1406 244.883 65.1406 244.648C65.1406 244.414 65.1719 244.297 65.2344 244.297C65.3594 244.297 65.5234 244.266 65.7266 244.203C65.9297 244.141 66.125 244.062 66.3125 243.969C66.5 243.875 66.6016 243.789 66.6172 243.711C66.7266 243.273 66.7812 242.68 66.7812 241.93V238.508C66.7812 237.633 66.6406 237.047 66.3594 236.75C66.2344 236.594 66.0625 236.484 65.8438 236.422C65.6406 236.359 65.4609 236.32 65.3047 236.305C65.1484 236.273 65.0703 236.242 65.0703 236.211C65.0703 235.758 65.1094 235.531 65.1875 235.531C65.3281 235.531 65.5859 235.5 65.9609 235.438C66.3359 235.375 66.75 235.297 67.2031 235.203C67.6719 235.109 68.1094 235.016 68.5156 234.922C68.9375 234.828 69.2578 234.75 69.4766 234.688L69.7344 234.617C69.8125 234.617 69.8906 234.672 69.9688 234.781C70.0469 234.875 70.0859 234.953 70.0859 235.016C70.0078 235.703 69.9453 236.242 69.8984 236.633C69.8516 237.023 69.8281 237.266 69.8281 237.359V241.578C69.8281 242.469 69.8906 243.18 70.0156 243.711C70.0469 243.773 70.1484 243.852 70.3203 243.945C70.5078 244.039 70.7031 244.125 70.9062 244.203C71.1094 244.266 71.25 244.297 71.3281 244.297C71.375 244.297 71.3984 244.414 71.3984 244.648C71.4141 244.883 71.4062 245.031 71.375 245.094C71.25 245.078 70.9844 245.055 70.5781 245.023C70.1875 245.008 69.7734 244.984 69.3359 244.953C68.8984 244.922 68.5547 244.906 68.3047 244.906C68.0547 244.906 67.7109 244.922 67.2734 244.953C66.8359 244.984 66.4219 245.008 66.0312 245.023C65.6406 245.055 65.375 245.078 65.2344 245.094ZM68.1875 232.297C67.7031 232.297 67.2891 232.133 66.9453 231.805C66.6172 231.461 66.4531 231.047 66.4531 230.562C66.4531 230.078 66.6172 229.672 66.9453 229.344C67.2891 229 67.7031 228.828 68.1875 228.828C68.6719 228.828 69.0781 229 69.4062 229.344C69.75 229.672 69.9219 230.078 69.9219 230.562C69.9219 231.047 69.75 231.461 69.4062 231.805C69.0781 232.133 68.6719 232.297 68.1875 232.297ZM78.0547 245.164C77.0547 245.164 76.1562 244.922 75.3594 244.438C74.5625 243.953 73.9297 243.297 73.4609 242.469C72.9922 241.641 72.7578 240.719 72.7578 239.703C72.7578 238.734 73.0078 237.859 73.5078 237.078C74.0078 236.297 74.6797 235.68 75.5234 235.227C76.3828 234.758 77.3281 234.523 78.3594 234.523C79.1562 234.523 79.8906 234.664 80.5625 234.945C81.2344 235.211 81.7188 235.531 82.0156 235.906C82.0156 237.344 81.5938 238.062 80.75 238.062C80.1406 238.062 79.6797 237.672 79.3672 236.891C79.2266 236.531 79.0469 236.266 78.8281 236.094C78.625 235.906 78.3359 235.812 77.9609 235.812C76.7109 235.812 76.0859 236.984 76.0859 239.328C76.0859 241.969 76.9688 243.289 78.7344 243.289C79.2656 243.289 79.7578 243.211 80.2109 243.055C80.5234 242.961 80.7656 242.875 80.9375 242.797C81.1094 242.719 81.2656 242.633 81.4062 242.539C81.5625 242.43 81.7422 242.297 81.9453 242.141C82.0859 242.203 82.1562 242.352 82.1562 242.586C82.1562 242.789 82.125 242.945 82.0625 243.055C81.9688 243.305 81.7266 243.602 81.3359 243.945C80.9453 244.273 80.4609 244.562 79.8828 244.812C79.3203 245.047 78.7109 245.164 78.0547 245.164ZM83.4453 245.094C83.3828 245.031 83.3516 244.867 83.3516 244.602C83.3516 244.352 83.3828 244.227 83.4453 244.227C83.5703 244.227 83.75 244.195 83.9844 244.133C84.2188 244.055 84.4375 243.969 84.6406 243.875C84.8438 243.781 84.9531 243.703 84.9688 243.641C85.0781 243.203 85.1328 242.609 85.1328 241.859V232.555C85.1328 232.195 85.1172 231.875 85.0859 231.594C85.0703 231.312 85.0469 231.07 85.0156 230.867C84.9531 230.617 84.5469 230.492 83.7969 230.492H83.5859C83.4922 230.492 83.4453 230.336 83.4453 230.023C83.4453 229.758 83.4922 229.625 83.5859 229.625C84.4922 229.547 85.3438 229.414 86.1406 229.227C86.9531 229.039 87.5312 228.891 87.875 228.781L88.1094 228.711H88.1562C88.2188 228.711 88.2812 228.758 88.3438 228.852C88.4062 228.945 88.4453 229.031 88.4609 229.109C88.2734 229.812 88.1797 230.602 88.1797 231.477V235.836C88.1797 235.945 88.2109 236 88.2734 236C88.2891 236 88.3281 235.969 88.3906 235.906C88.7344 235.516 89.2188 235.195 89.8438 234.945C90.4688 234.68 91.1172 234.547 91.7891 234.547C92.6953 234.547 93.4297 234.93 93.9922 235.695C94.5703 236.461 94.8594 237.625 94.8594 239.188V241.508C94.8594 242.539 94.9141 243.25 95.0234 243.641C95.0547 243.703 95.1719 243.781 95.375 243.875C95.5781 243.969 95.7891 244.055 96.0078 244.133C96.2422 244.195 96.4062 244.227 96.5 244.227C96.5312 244.227 96.5547 244.289 96.5703 244.414C96.5859 244.539 96.5938 244.672 96.5938 244.812C96.5938 244.953 96.5781 245.047 96.5469 245.094C96.4531 245.094 96.2734 245.078 96.0078 245.047C95.7422 245.031 95.4297 245.016 95.0703 245C94.7266 244.969 94.3984 244.945 94.0859 244.93C93.7734 244.914 93.5234 244.906 93.3359 244.906C93.0859 244.906 92.7344 244.922 92.2812 244.953C91.8438 244.984 91.4219 245.008 91.0156 245.023C90.6094 245.055 90.3438 245.078 90.2188 245.094C90.1562 245.031 90.125 244.867 90.125 244.602C90.125 244.352 90.1562 244.227 90.2188 244.227C90.3438 244.227 90.5078 244.195 90.7109 244.133C90.9297 244.055 91.1328 243.969 91.3203 243.875C91.5234 243.781 91.6328 243.703 91.6484 243.641C91.7578 243.203 91.8125 242.609 91.8125 241.859V239.75C91.8125 238.594 91.6562 237.773 91.3438 237.289C91.0312 236.789 90.5234 236.539 89.8203 236.539C88.7266 236.539 88.1797 236.883 88.1797 237.57V241.508C88.1797 242.539 88.2344 243.25 88.3438 243.641C88.375 243.703 88.4844 243.781 88.6719 243.875C88.8594 243.969 89.0625 244.055 89.2812 244.133C89.5 244.195 89.6484 244.227 89.7266 244.227C89.7578 244.227 89.7812 244.289 89.7969 244.414C89.8125 244.539 89.8203 244.672 89.8203 244.812C89.8203 244.953 89.8047 245.047 89.7734 245.094C89.6484 245.078 89.3828 245.055 88.9766 245.023C88.5703 245.008 88.1406 244.984 87.6875 244.953C87.25 244.922 86.9062 244.906 86.6562 244.906C86.4688 244.906 86.2109 244.914 85.8828 244.93C85.5703 244.945 85.2422 244.969 84.8984 245C84.5547 245.016 84.25 245.031 83.9844 245.047C83.7188 245.078 83.5391 245.094 83.4453 245.094ZM100.062 245.164C99.2031 245.164 98.5156 244.93 98 244.461C97.5 243.977 97.25 243.375 97.25 242.656C97.25 242.047 97.4375 241.516 97.8125 241.062C98.2031 240.609 98.6875 240.25 99.2656 239.984C99.4844 239.891 99.6875 239.812 99.875 239.75C100.062 239.672 100.234 239.602 100.391 239.539C100.984 239.352 101.461 239.219 101.82 239.141C102.18 239.047 102.445 238.969 102.617 238.906C102.758 238.859 102.828 238.742 102.828 238.555V237.711C102.828 236.43 102.438 235.789 101.656 235.789C100.75 235.789 100.297 236.312 100.297 237.359C100.297 237.703 100.156 237.961 99.875 238.133C99.5938 238.289 99.2812 238.367 98.9375 238.367C98.2188 238.367 97.7266 238.133 97.4609 237.664C97.4609 237.258 97.6016 236.867 97.8828 236.492C98.1797 236.117 98.5625 235.781 99.0312 235.484C99.5156 235.172 100.055 234.93 100.648 234.758C101.258 234.57 101.867 234.477 102.477 234.477C103.57 234.477 104.406 234.781 104.984 235.391C105.578 235.984 105.875 237.07 105.875 238.648V242.445C105.875 242.977 106.062 243.242 106.438 243.242C106.719 243.242 106.984 243.141 107.234 242.938C107.344 243 107.398 243.117 107.398 243.289C107.398 243.695 107.344 243.984 107.234 244.156C107.016 244.359 106.656 244.578 106.156 244.812C105.672 245.031 105.211 245.141 104.773 245.141C104.398 245.141 104.039 245.031 103.695 244.812C103.352 244.578 103.125 244.312 103.016 244.016C103 244.016 102.914 244.07 102.758 244.18C102.602 244.289 102.484 244.375 102.406 244.438C102.094 244.641 101.734 244.812 101.328 244.953C100.922 245.094 100.5 245.164 100.062 245.164ZM101.539 243.477C101.945 243.477 102.258 243.383 102.477 243.195C102.711 242.992 102.828 242.75 102.828 242.469V240.102L101.609 240.523C101.281 240.633 100.977 240.797 100.695 241.016C100.43 241.234 100.297 241.523 100.297 241.883C100.297 242.445 100.414 242.852 100.648 243.102C100.898 243.352 101.195 243.477 101.539 243.477ZM108.711 245.094C108.648 245.031 108.617 244.867 108.617 244.602C108.617 244.352 108.648 244.227 108.711 244.227C108.836 244.227 109.016 244.195 109.25 244.133C109.484 244.055 109.703 243.969 109.906 243.875C110.109 243.781 110.219 243.703 110.234 243.641C110.344 243.203 110.398 242.609 110.398 241.859V238.648C110.398 237.773 110.258 237.188 109.977 236.891C109.852 236.734 109.68 236.625 109.461 236.562C109.258 236.5 109.078 236.461 108.922 236.445C108.766 236.414 108.688 236.383 108.688 236.352C108.688 235.805 108.727 235.531 108.805 235.531C109.211 235.531 109.773 235.445 110.492 235.273C111.227 235.086 112 234.906 112.812 234.734L113.352 234.617C113.43 234.617 113.508 234.672 113.586 234.781C113.664 234.875 113.703 234.953 113.703 235.016C113.688 235.109 113.664 235.297 113.633 235.578C113.617 235.859 113.602 236.016 113.586 236.047C114.367 235.031 115.25 234.523 116.234 234.523C116.938 234.523 117.609 234.812 118.25 235.391C118.25 236.203 118.148 236.805 117.945 237.195C117.758 237.586 117.406 237.781 116.891 237.781C116.578 237.781 116.219 237.602 115.812 237.242C115.406 236.883 115.047 236.703 114.734 236.703C114.422 236.703 114.172 236.828 113.984 237.078C113.797 237.312 113.656 237.617 113.562 237.992C113.484 238.367 113.445 238.758 113.445 239.164V241.531C113.445 242.547 113.5 243.25 113.609 243.641C113.641 243.703 113.75 243.781 113.938 243.875C114.125 243.969 114.328 244.055 114.547 244.133C114.766 244.195 114.914 244.227 114.992 244.227C115.023 244.227 115.047 244.289 115.062 244.414C115.078 244.539 115.086 244.672 115.086 244.812C115.086 244.953 115.07 245.047 115.039 245.094C114.914 245.078 114.648 245.055 114.242 245.023C113.836 245.008 113.406 244.984 112.953 244.953C112.516 244.922 112.172 244.906 111.922 244.906C111.734 244.906 111.477 244.914 111.148 244.93C110.836 244.945 110.508 244.969 110.164 245C109.82 245.016 109.516 245.031 109.25 245.047C108.984 245.078 108.805 245.094 108.711 245.094ZM124.18 245.141C123.336 245.141 122.539 244.93 121.789 244.508C121.055 244.086 120.453 243.492 119.984 242.727C119.531 241.961 119.305 241.062 119.305 240.031C119.305 238.984 119.547 238.047 120.031 237.219C120.531 236.391 121.203 235.734 122.047 235.25C122.906 234.766 123.867 234.523 124.93 234.523C125.586 234.523 126.133 234.594 126.57 234.734C126.617 234.734 126.641 234.625 126.641 234.406V232.555C126.641 231.898 126.594 231.336 126.5 230.867C126.438 230.617 126.031 230.492 125.281 230.492H125.07C124.977 230.492 124.93 230.336 124.93 230.023C124.93 229.758 124.977 229.625 125.07 229.625C125.977 229.547 126.828 229.414 127.625 229.227C128.438 229.039 129.016 228.891 129.359 228.781L129.594 228.711H129.641C129.703 228.711 129.766 228.758 129.828 228.852C129.891 228.945 129.93 229.031 129.945 229.109C129.773 229.844 129.688 230.633 129.688 231.477V241.555C129.688 241.898 129.703 242.273 129.734 242.68C129.766 243.07 129.836 243.32 129.945 243.43C130.07 243.523 130.211 243.578 130.367 243.594C130.523 243.594 130.727 243.609 130.977 243.641L131.211 243.664C131.258 243.68 131.281 243.773 131.281 243.945C131.281 244.336 131.234 244.531 131.141 244.531C130.75 244.547 130.297 244.594 129.781 244.672C129.281 244.75 128.789 244.828 128.305 244.906C127.82 244.984 127.43 245.047 127.133 245.094L126.781 245.141C126.688 245.156 126.641 245.023 126.641 244.742V244.25C126.641 244.125 126.609 244.094 126.547 244.156C125.891 244.812 125.102 245.141 124.18 245.141ZM124.789 243.711C125.32 243.711 125.758 243.562 126.102 243.266C126.461 242.953 126.641 242.578 126.641 242.141V237.875C126.641 237.688 126.625 237.508 126.594 237.336C126.562 237.164 126.492 236.945 126.383 236.68C126.273 236.414 126.078 236.203 125.797 236.047C125.531 235.875 125.195 235.789 124.789 235.789C124.055 235.789 123.516 236.086 123.172 236.68C122.844 237.258 122.68 238.188 122.68 239.469C122.68 242.297 123.383 243.711 124.789 243.711ZM144.805 245.211C143.773 245.211 142.805 245.008 141.898 244.602C141.008 244.195 140.219 243.633 139.531 242.914C138.844 242.195 138.305 241.367 137.914 240.43C137.539 239.492 137.352 238.5 137.352 237.453C137.352 236.344 137.547 235.305 137.938 234.336C138.344 233.367 138.898 232.508 139.602 231.758C140.305 231.008 141.117 230.422 142.039 230C142.977 229.578 143.984 229.367 145.062 229.367C145.922 229.367 146.797 229.43 147.688 229.555C148.578 229.664 149.492 229.828 150.43 230.047C150.477 230.047 150.523 230.227 150.57 230.586C150.633 230.93 150.695 231.344 150.758 231.828C150.82 232.297 150.867 232.734 150.898 233.141C150.945 233.531 150.969 233.781 150.969 233.891C150.969 234.016 150.828 234.078 150.547 234.078C150.25 234.078 150.008 234.039 149.82 233.961C149.742 233.664 149.617 233.359 149.445 233.047C149.273 232.734 149.016 232.383 148.672 231.992C148.328 231.602 147.852 231.289 147.242 231.055C146.633 230.805 145.945 230.68 145.18 230.68C142.367 230.68 140.961 232.758 140.961 236.914C140.961 238.055 141.117 239.141 141.43 240.172C141.633 240.844 141.938 241.461 142.344 242.023C142.766 242.586 143.273 243.039 143.867 243.383C144.477 243.727 145.164 243.898 145.93 243.898C146.633 243.898 147.133 243.773 147.43 243.523C147.602 243.383 147.688 243.148 147.688 242.82V241.18C147.688 240.352 147.633 239.75 147.523 239.375C147.414 238.953 146.898 238.742 145.977 238.742C145.945 238.742 145.914 238.68 145.883 238.555C145.867 238.43 145.867 238.297 145.883 238.156C145.898 238 145.922 237.906 145.953 237.875C146.578 237.906 147.203 237.938 147.828 237.969C148.453 238 148.992 238.016 149.445 238.016C149.68 238.016 150.734 237.969 152.609 237.875C152.656 238.016 152.68 238.172 152.68 238.344C152.68 238.625 152.648 238.766 152.586 238.766C152.227 238.766 151.812 238.883 151.344 239.117C151.094 239.227 150.969 239.844 150.969 240.969V242.328C150.969 242.609 150.992 242.82 151.039 242.961C151.086 243.102 151.109 243.188 151.109 243.219C151.109 243.484 150.945 243.703 150.617 243.875C150.039 244.172 149.594 244.383 149.281 244.508C148.953 244.648 148.375 244.805 147.547 244.977C146.734 245.133 145.82 245.211 144.805 245.211ZM162.336 245.117C162.242 245.117 162.195 244.977 162.195 244.695V243.828C162.195 243.703 162.164 243.672 162.102 243.734C161.773 244.078 161.289 244.391 160.648 244.672C160.023 244.953 159.344 245.094 158.609 245.094C158 245.094 157.461 244.906 156.992 244.531C156.539 244.156 156.188 243.656 155.938 243.031C155.688 242.391 155.562 241.688 155.562 240.922V238.648C155.562 237.773 155.422 237.188 155.141 236.891C155.016 236.734 154.844 236.625 154.625 236.562C154.422 236.5 154.242 236.461 154.086 236.445C153.93 236.414 153.852 236.383 153.852 236.352C153.852 235.805 153.891 235.531 153.969 235.531C154.109 235.531 154.367 235.5 154.742 235.438C155.133 235.375 155.555 235.305 156.008 235.227C156.461 235.133 156.891 235.039 157.297 234.945C157.719 234.836 158.039 234.75 158.258 234.688C158.305 234.672 158.344 234.656 158.375 234.641C158.422 234.625 158.469 234.617 158.516 234.617C158.594 234.617 158.672 234.672 158.75 234.781C158.828 234.875 158.867 234.953 158.867 235.016C158.789 235.703 158.727 236.242 158.68 236.633C158.633 237.023 158.609 237.266 158.609 237.359V239.867C158.609 241.086 158.766 241.945 159.078 242.445C159.391 242.93 159.914 243.172 160.648 243.172C161.18 243.172 161.578 243.055 161.844 242.82C162.109 242.57 162.242 242.297 162.242 242V238.648C162.242 237.773 162.102 237.188 161.82 236.891C161.695 236.734 161.523 236.625 161.305 236.562C161.102 236.5 160.922 236.461 160.766 236.445C160.609 236.414 160.531 236.383 160.531 236.352C160.531 235.805 160.57 235.531 160.648 235.531C160.789 235.531 161.047 235.5 161.422 235.438C161.812 235.375 162.234 235.305 162.688 235.227C163.141 235.133 163.57 235.039 163.977 234.945C164.398 234.836 164.719 234.75 164.938 234.688L165.195 234.617C165.273 234.617 165.352 234.672 165.43 234.781C165.508 234.875 165.547 234.953 165.547 235.016C165.469 235.703 165.406 236.242 165.359 236.633C165.312 237.023 165.289 237.258 165.289 237.336V241.93C165.289 242.758 165.367 243.25 165.523 243.406C165.602 243.484 165.727 243.547 165.898 243.594C166.07 243.625 166.242 243.641 166.414 243.641H166.648C166.711 243.656 166.742 243.719 166.742 243.828C166.742 244.281 166.695 244.508 166.602 244.508C165.633 244.602 164.82 244.695 164.164 244.789C163.523 244.883 163.023 244.969 162.664 245.047L162.336 245.117ZM172.953 245.164C172 245.164 171.117 244.922 170.305 244.438C169.508 243.953 168.867 243.305 168.383 242.492C167.914 241.68 167.68 240.789 167.68 239.82C167.68 238.82 167.891 237.922 168.312 237.125C168.75 236.328 169.352 235.695 170.117 235.227C170.883 234.758 171.766 234.523 172.766 234.523C173.75 234.523 174.586 234.758 175.273 235.227C175.977 235.68 176.508 236.25 176.867 236.938C177.242 237.609 177.43 238.289 177.43 238.977C177.43 239.336 177.352 239.57 177.195 239.68C177.055 239.789 176.766 239.844 176.328 239.844H171.031C170.938 239.844 170.891 239.898 170.891 240.008C170.891 240.57 170.992 241.102 171.195 241.602C171.414 242.102 171.727 242.508 172.133 242.82C172.555 243.133 173.062 243.289 173.656 243.289C174.188 243.289 174.68 243.211 175.133 243.055C175.445 242.961 175.688 242.875 175.859 242.797C176.031 242.719 176.188 242.633 176.328 242.539C176.484 242.43 176.664 242.297 176.867 242.141C177.008 242.203 177.078 242.352 177.078 242.586C177.078 242.789 177.047 242.945 176.984 243.055C176.891 243.305 176.641 243.594 176.234 243.922C175.844 244.25 175.359 244.539 174.781 244.789C174.219 245.039 173.609 245.164 172.953 245.164ZM171.055 238.555H174.031C174.25 238.555 174.359 238.406 174.359 238.109C174.359 237.516 174.195 236.984 173.867 236.516C173.555 236.047 173.148 235.812 172.648 235.812C172.195 235.812 171.836 235.977 171.57 236.305C171.32 236.617 171.141 236.969 171.031 237.359C170.938 237.75 170.891 238.07 170.891 238.32C170.891 238.477 170.945 238.555 171.055 238.555ZM178.859 245.094C178.797 245.031 178.766 244.867 178.766 244.602C178.766 244.352 178.797 244.227 178.859 244.227C178.984 244.227 179.164 244.195 179.398 244.133C179.633 244.055 179.852 243.969 180.055 243.875C180.258 243.781 180.367 243.703 180.383 243.641C180.492 243.203 180.547 242.609 180.547 241.859V238.648C180.547 237.773 180.406 237.188 180.125 236.891C180 236.734 179.828 236.625 179.609 236.562C179.406 236.5 179.227 236.461 179.07 236.445C178.914 236.414 178.836 236.383 178.836 236.352C178.836 235.805 178.875 235.531 178.953 235.531C179.359 235.531 179.922 235.445 180.641 235.273C181.375 235.086 182.148 234.906 182.961 234.734L183.5 234.617C183.578 234.617 183.656 234.672 183.734 234.781C183.812 234.875 183.852 234.953 183.852 235.016C183.836 235.109 183.812 235.297 183.781 235.578C183.766 235.859 183.75 236.016 183.734 236.047C184.516 235.031 185.398 234.523 186.383 234.523C187.086 234.523 187.758 234.812 188.398 235.391C188.398 236.203 188.297 236.805 188.094 237.195C187.906 237.586 187.555 237.781 187.039 237.781C186.727 237.781 186.367 237.602 185.961 237.242C185.555 236.883 185.195 236.703 184.883 236.703C184.57 236.703 184.32 236.828 184.133 237.078C183.945 237.312 183.805 237.617 183.711 237.992C183.633 238.367 183.594 238.758 183.594 239.164V241.531C183.594 242.547 183.648 243.25 183.758 243.641C183.789 243.703 183.898 243.781 184.086 243.875C184.273 243.969 184.477 244.055 184.695 244.133C184.914 244.195 185.062 244.227 185.141 244.227C185.172 244.227 185.195 244.289 185.211 244.414C185.227 244.539 185.234 244.672 185.234 244.812C185.234 244.953 185.219 245.047 185.188 245.094C185.062 245.078 184.797 245.055 184.391 245.023C183.984 245.008 183.555 244.984 183.102 244.953C182.664 244.922 182.32 244.906 182.07 244.906C181.883 244.906 181.625 244.914 181.297 244.93C180.984 244.945 180.656 244.969 180.312 245C179.969 245.016 179.664 245.031 179.398 245.047C179.133 245.078 178.953 245.094 178.859 245.094ZM189.758 245.094C189.695 245.031 189.664 244.867 189.664 244.602C189.664 244.352 189.695 244.227 189.758 244.227C189.883 244.227 190.062 244.195 190.297 244.133C190.531 244.055 190.75 243.969 190.953 243.875C191.156 243.781 191.266 243.703 191.281 243.641C191.391 243.203 191.445 242.609 191.445 241.859V238.648C191.445 237.773 191.305 237.188 191.023 236.891C190.898 236.734 190.727 236.625 190.508 236.562C190.305 236.5 190.125 236.461 189.969 236.445C189.812 236.414 189.734 236.383 189.734 236.352C189.734 235.805 189.773 235.531 189.852 235.531C190.258 235.531 190.82 235.445 191.539 235.273C192.273 235.086 193.047 234.906 193.859 234.734L194.398 234.617C194.477 234.617 194.555 234.672 194.633 234.781C194.711 234.875 194.75 234.953 194.75 235.016C194.734 235.109 194.711 235.297 194.68 235.578C194.664 235.859 194.648 236.016 194.633 236.047C195.414 235.031 196.297 234.523 197.281 234.523C197.984 234.523 198.656 234.812 199.297 235.391C199.297 236.203 199.195 236.805 198.992 237.195C198.805 237.586 198.453 237.781 197.938 237.781C197.625 237.781 197.266 237.602 196.859 237.242C196.453 236.883 196.094 236.703 195.781 236.703C195.469 236.703 195.219 236.828 195.031 237.078C194.844 237.312 194.703 237.617 194.609 237.992C194.531 238.367 194.492 238.758 194.492 239.164V241.531C194.492 242.547 194.547 243.25 194.656 243.641C194.688 243.703 194.797 243.781 194.984 243.875C195.172 243.969 195.375 244.055 195.594 244.133C195.812 244.195 195.961 244.227 196.039 244.227C196.07 244.227 196.094 244.289 196.109 244.414C196.125 244.539 196.133 244.672 196.133 244.812C196.133 244.953 196.117 245.047 196.086 245.094C195.961 245.078 195.695 245.055 195.289 245.023C194.883 245.008 194.453 244.984 194 244.953C193.562 244.922 193.219 244.906 192.969 244.906C192.781 244.906 192.523 244.914 192.195 244.93C191.883 244.945 191.555 244.969 191.211 245C190.867 245.016 190.562 245.031 190.297 245.047C190.031 245.078 189.852 245.094 189.758 245.094ZM203.398 245.164C202.539 245.164 201.852 244.93 201.336 244.461C200.836 243.977 200.586 243.375 200.586 242.656C200.586 242.047 200.773 241.516 201.148 241.062C201.539 240.609 202.023 240.25 202.602 239.984C202.82 239.891 203.023 239.812 203.211 239.75C203.398 239.672 203.57 239.602 203.727 239.539C204.32 239.352 204.797 239.219 205.156 239.141C205.516 239.047 205.781 238.969 205.953 238.906C206.094 238.859 206.164 238.742 206.164 238.555V237.711C206.164 236.43 205.773 235.789 204.992 235.789C204.086 235.789 203.633 236.312 203.633 237.359C203.633 237.703 203.492 237.961 203.211 238.133C202.93 238.289 202.617 238.367 202.273 238.367C201.555 238.367 201.062 238.133 200.797 237.664C200.797 237.258 200.938 236.867 201.219 236.492C201.516 236.117 201.898 235.781 202.367 235.484C202.852 235.172 203.391 234.93 203.984 234.758C204.594 234.57 205.203 234.477 205.812 234.477C206.906 234.477 207.742 234.781 208.32 235.391C208.914 235.984 209.211 237.07 209.211 238.648V242.445C209.211 242.977 209.398 243.242 209.773 243.242C210.055 243.242 210.32 243.141 210.57 242.938C210.68 243 210.734 243.117 210.734 243.289C210.734 243.695 210.68 243.984 210.57 244.156C210.352 244.359 209.992 244.578 209.492 244.812C209.008 245.031 208.547 245.141 208.109 245.141C207.734 245.141 207.375 245.031 207.031 244.812C206.688 244.578 206.461 244.312 206.352 244.016C206.336 244.016 206.25 244.07 206.094 244.18C205.938 244.289 205.82 244.375 205.742 244.438C205.43 244.641 205.07 244.812 204.664 244.953C204.258 245.094 203.836 245.164 203.398 245.164ZM204.875 243.477C205.281 243.477 205.594 243.383 205.812 243.195C206.047 242.992 206.164 242.75 206.164 242.469V240.102L204.945 240.523C204.617 240.633 204.312 240.797 204.031 241.016C203.766 241.234 203.633 241.523 203.633 241.883C203.633 242.445 203.75 242.852 203.984 243.102C204.234 243.352 204.531 243.477 204.875 243.477Z" fill="#212529"/>
<path d="M58.1 282.465C57.89 283.025 57.59 283.51 57.2 283.92C56.81 284.32 56.35 284.625 55.82 284.835C55.3 285.045 54.73 285.15 54.11 285.15C53.17 285.15 52.355 284.945 51.665 284.535C50.985 284.115 50.455 283.525 50.075 282.765C49.705 282.005 49.52 281.1 49.52 280.05C49.52 279 49.705 278.095 50.075 277.335C50.455 276.575 50.985 275.99 51.665 275.58C52.355 275.16 53.16 274.95 54.08 274.95C54.72 274.95 55.29 275.04 55.79 275.22C56.29 275.39 56.715 275.65 57.065 276C57.425 276.34 57.71 276.76 57.92 277.26L56.735 277.815C56.515 277.245 56.195 276.815 55.775 276.525C55.365 276.225 54.83 276.075 54.17 276.075C53.5 276.075 52.91 276.235 52.4 276.555C51.89 276.865 51.49 277.315 51.2 277.905C50.92 278.495 50.78 279.21 50.78 280.05C50.78 280.88 50.915 281.595 51.185 282.195C51.455 282.785 51.84 283.24 52.34 283.56C52.84 283.87 53.43 284.025 54.11 284.025C54.77 284.025 55.345 283.86 55.835 283.53C56.325 283.19 56.68 282.685 56.9 282.015L58.1 282.465ZM67.3632 275.1V276.225H63.9132V285H62.7132V276.225H59.2632V275.1H67.3632ZM73.109 274.95C74.049 274.95 74.859 275.16 75.539 275.58C76.229 275.99 76.759 276.575 77.129 277.335C77.509 278.095 77.699 279 77.699 280.05C77.699 281.1 77.509 282.005 77.129 282.765C76.759 283.525 76.229 284.115 75.539 284.535C74.859 284.945 74.049 285.15 73.109 285.15C72.169 285.15 71.354 284.945 70.664 284.535C69.984 284.115 69.454 283.525 69.074 282.765C68.704 282.005 68.519 281.1 68.519 280.05C68.519 279 68.704 278.095 69.074 277.335C69.454 276.575 69.984 275.99 70.664 275.58C71.354 275.16 72.169 274.95 73.109 274.95ZM73.109 276.075C72.429 276.075 71.839 276.235 71.339 276.555C70.839 276.865 70.454 277.32 70.184 277.92C69.914 278.51 69.779 279.22 69.779 280.05C69.779 280.88 69.914 281.595 70.184 282.195C70.454 282.785 70.839 283.24 71.339 283.56C71.839 283.87 72.429 284.025 73.109 284.025C73.799 284.025 74.389 283.87 74.879 283.56C75.379 283.24 75.764 282.785 76.034 282.195C76.304 281.595 76.439 280.88 76.439 280.05C76.439 279.22 76.304 278.51 76.034 277.92C75.764 277.32 75.379 276.865 74.879 276.555C74.389 276.235 73.799 276.075 73.109 276.075Z" fill="#212529" fill-opacity="0.75"/>
<defs>
<filter id="filter0_d_145_68" x="0" y="0" width="305" height="325" filterUnits="userSpaceOnUse" color-interpolation-filters="sRGB">
<feFlood flood-opacity="0" result="BackgroundImageFix"/>
<feColorMatrix in="SourceAlpha" type="matrix" values="0 0 0 0 0 0 0 0 0 0 0 0 0 0 0 0 0 0 127 0" result="hardAlpha"/>
<feMorphology radius="1" operator="dilate" in="SourceAlpha" result="effect1_dropShadow_145_68"/>
<feOffset dx="3" dy="4"/>
<feGaussianBlur stdDeviation="6"/>
<feComposite in2="hardAlpha" operator="out"/>
<feColorMatrix type="matrix" values="0 0 0 0 0 0 0 0 0 0 0 0 0 0 0 0 0 0 0.25 0"/>
<feBlend mode="normal" in2="BackgroundImageFix" result="effect1_dropShadow_145_68"/>
<feBlend mode="normal" in="SourceGraphic" in2="effect1_dropShadow_145_68" result="shape"/>
</filter>
</defs>
</svg>
